<svg width="22" height="21" viewBox="0 0 22 21" fill="none" xmlns="http://www.w3.org/2000/svg">
<path d="M12.3156 5.25011L14.3169 3.24374C14.4805 3.0797 14.7025 2.98755 14.9339 2.98755C15.1654 2.98755 15.3873 3.0797 15.551 3.24374L17.808 5.50649C17.9716 5.67057 18.0635 5.89309 18.0635 6.12511C18.0635 6.35713 17.9716 6.57965 17.808 6.74374L15.8067 8.75011M12.3156 5.25011L3.84361 13.7437C3.67993 13.9078 3.58794 14.1303 3.58789 14.3624V16.6251C3.58789 16.8572 3.67984 17.0797 3.84352 17.2438C4.0072 17.4079 4.22919 17.5001 4.46066 17.5001H6.71765C6.9491 17.5001 7.17106 17.4078 7.3347 17.2437L15.8067 8.75011M12.3156 5.25011L15.8067 8.75011" stroke="#8A5B4A" stroke-width="2" stroke-linecap="round" stroke-linejoin="round"/>
</svg>
