<svg width="50" height="50" viewBox="0 0 50 50" fill="none" xmlns="http://www.w3.org/2000/svg">
<path d="M18.75 36.4583V12.5L41.6667 6.25V34.375M18.75 36.4583C18.75 39.3348 16.4181 41.6667 13.5417 41.6667C10.6652 41.6667 8.33334 39.3348 8.33334 36.4583C8.33334 33.5819 10.6652 31.25 13.5417 31.25C16.4181 31.25 18.75 33.5819 18.75 36.4583ZM41.6667 34.375C41.6667 37.2515 39.3348 39.5833 36.4583 39.5833C33.5819 39.5833 31.25 37.2515 31.25 34.375C31.25 31.4985 33.5819 29.1667 36.4583 29.1667C39.3348 29.1667 41.6667 31.4985 41.6667 34.375Z" stroke="#8A5B4A" stroke-width="4" stroke-linecap="round" stroke-linejoin="round"/>
</svg>
