<svg width="50" height="50" viewBox="0 0 50 50" fill="none" xmlns="http://www.w3.org/2000/svg">
<g clip-path="url(#clip0_76_138)">
<path d="M13.6463 15.2352C13.6463 18.1505 11.6913 20.0722 9.78102 20.0722C7.87093 20.0722 5.91626 18.1507 5.91626 15.2352C5.91626 12.3202 7.87075 10.3989 9.78102 10.3989C11.6914 10.3989 13.6463 12.3206 13.6463 15.2352Z" stroke="#8A5B4A" stroke-width="3"/>
<path d="M14.082 23.1124C14.3174 23.8606 14.6101 24.5606 14.9582 25.2263C13.546 26.1076 12.2739 27.1615 11.1622 28.3524H2.16298C1.95717 28.3524 1.7609 28.2557 1.63385 28.0882C1.50811 27.9207 1.46907 27.7047 1.52555 27.5079L1.52558 27.5077C2.08779 25.5477 3.34354 23.876 5.01299 22.7725C6.32875 23.8712 7.97242 24.5514 9.78123 24.5514C11.4254 24.5514 12.8718 23.9585 14.082 23.1124ZM14.6864 22.6568C14.6865 22.6571 14.684 22.6588 14.6785 22.6611C14.6836 22.6577 14.6863 22.6565 14.6864 22.6568Z" stroke="#8A5B4A" stroke-width="3"/>
<path d="M40.219 20.0722C38.3087 20.0722 36.3535 18.1504 36.3535 15.2352C36.3535 12.3207 38.3085 10.3989 40.219 10.3989C42.1294 10.3989 44.084 12.3203 44.084 15.2352C44.084 18.1506 42.1292 20.0722 40.219 20.0722Z" stroke="#8A5B4A" stroke-width="3"/>
<path d="M35.0419 25.2263C35.39 24.5606 35.6827 23.8605 35.9182 23.1122C37.1284 23.9584 38.575 24.5514 40.2192 24.5514C42.0281 24.5514 43.6716 23.8711 44.9873 22.7724C46.6566 23.8759 47.9124 25.5476 48.4749 27.5077L35.0419 25.2263ZM35.0419 25.2263C36.4543 26.1077 37.7263 27.1616 38.8381 28.3524H47.8372C48.0437 28.3524 48.24 28.2552 48.3661 28.0885C48.4923 27.9207 48.5313 27.7048 48.4749 27.5079L35.0419 25.2263ZM35.3141 22.6567C35.3142 22.6565 35.3169 22.6576 35.3219 22.6611C35.3165 22.6588 35.314 22.657 35.3141 22.6567Z" stroke="#8A5B4A" stroke-width="3"/>
<path d="M38.1767 37.276L38.1765 37.2754C37.231 33.9748 35.0842 31.1784 32.2371 29.3837L38.1767 37.276ZM38.1767 37.276C38.3343 37.8252 38.2248 38.4174 37.8796 38.8759L38.1767 37.276ZM32.0482 29.3977L32.0479 29.398C30.1155 31.0999 27.6789 32.1488 25 32.1488C22.2686 32.1488 19.789 31.0591 17.8384 29.2983L17.8381 29.298C17.7869 29.2517 17.7115 29.2439 17.6506 29.2812L17.6501 29.2815C14.7187 31.0717 12.504 33.9113 11.5397 37.2759L11.5395 37.2766C11.3825 37.8232 11.4917 38.4159 11.8367 38.8749C12.1833 39.3328 12.7223 39.6008 13.293 39.6008H36.4233C36.9963 39.6008 37.5347 39.3329 37.8795 38.8761L32.0482 29.3977ZM32.0482 29.3977C32.0989 29.353 32.1763 29.3455 32.2369 29.3835L32.0482 29.3977Z" stroke="#8A5B4A" stroke-width="3"/>
<path d="M31.745 18.6367C31.745 23.4301 28.5004 26.8754 25 26.8754C21.4996 26.8754 18.2552 23.4304 18.2552 18.6367C18.2552 13.8427 21.4992 10.3989 25 10.3989C28.5009 10.3989 31.745 13.8428 31.745 18.6367Z" stroke="#8A5B4A" stroke-width="3"/>
</g>
<defs>
<clipPath id="clip0_76_138">
<rect width="50" height="50" fill="white"/>
</clipPath>
</defs>
</svg>
