<svg width="30" height="30" viewBox="0 0 30 30" fill="none" xmlns="http://www.w3.org/2000/svg">
<path d="M15 18.75C17.0711 18.75 18.75 17.0711 18.75 15C18.75 12.9289 17.0711 11.25 15 11.25C12.9289 11.25 11.25 12.9289 11.25 15C11.25 17.0711 12.9289 18.75 15 18.75Z" stroke="black" stroke-opacity="0.79" stroke-width="3"/>
<path d="M4.57664 13.299C5.16733 13.6701 5.54739 14.3024 5.54739 14.9999C5.54738 15.6975 5.16732 16.3297 4.57664 16.7009C4.17469 16.9534 3.91572 17.1552 3.73147 17.3954C3.32783 17.9215 3.14969 18.5862 3.23624 19.2436C3.30114 19.7366 3.59236 20.241 4.17478 21.2499C4.75722 22.2586 5.04843 22.763 5.44294 23.0657C5.96897 23.4694 6.63379 23.6475 7.29117 23.561C7.59121 23.5215 7.89547 23.3981 8.31507 23.1764C8.93192 22.8504 9.66959 22.8374 10.2738 23.1862C10.878 23.5351 11.2355 24.1804 11.2615 24.8775C11.2793 25.3519 11.3246 25.6771 11.4404 25.9567C11.6942 26.5692 12.1808 27.056 12.7934 27.3097C13.2529 27.5 13.8352 27.5 15.0001 27.5C16.165 27.5 16.7474 27.5 17.2069 27.3097C17.8194 27.056 18.3061 26.5692 18.5599 25.9567C18.6756 25.6771 18.721 25.3519 18.7387 24.8776C18.7647 24.1804 19.1222 23.5351 19.7265 23.1862C20.3306 22.8375 21.0682 22.8505 21.685 23.1765C22.1047 23.3982 22.409 23.5216 22.709 23.5611C23.3664 23.6477 24.0312 23.4695 24.5572 23.0659C24.9517 22.7632 25.243 22.2587 25.8255 21.25C26.0847 20.8009 26.2864 20.4517 26.4359 20.159M25.4235 16.701C24.8329 16.3299 24.4529 15.6976 24.4527 15.0001C24.4527 14.3025 24.8329 13.6701 25.4235 13.299C25.8255 13.0465 26.0844 12.8446 26.2686 12.6045C26.6722 12.0785 26.8504 11.4136 26.7639 10.7563C26.699 10.2632 26.4077 9.75885 25.8252 8.75006C25.2429 7.74126 24.9516 7.23687 24.5571 6.93415C24.0311 6.53051 23.3662 6.35237 22.7089 6.43891C22.4089 6.47842 22.1046 6.60175 21.685 6.82354C21.0681 7.14955 20.3305 7.16255 19.7264 6.8137C19.1222 6.46487 18.7647 5.81962 18.7387 5.12254C18.721 4.64815 18.6756 4.32294 18.5599 4.04329C18.3061 3.43073 17.8194 2.94404 17.2069 2.6903C16.7474 2.5 16.165 2.5 15.0001 2.5C13.8352 2.5 13.2529 2.5 12.7934 2.6903C12.1808 2.94404 11.6942 3.43073 11.4404 4.04329C11.3246 4.32291 11.2793 4.6481 11.2615 5.12242C11.2354 5.81957 10.8779 6.46489 10.2738 6.8137C9.66958 7.16252 8.93197 7.14949 8.31518 6.8235C7.89553 6.6017 7.59124 6.47836 7.29118 6.43885C6.63381 6.35231 5.96898 6.53045 5.44296 6.93409C5.04844 7.23681 4.75723 7.74121 4.17479 8.75C3.91551 9.19911 3.71393 9.54824 3.56434 9.84091" stroke="black" stroke-opacity="0.79" stroke-width="3" stroke-linecap="round"/>
</svg>
