<svg width="109" height="44" viewBox="0 0 109 44" fill="none" xmlns="http://www.w3.org/2000/svg">
<path d="M15.024 0.191999C15.808 0.191999 16.424 0.359999 16.872 0.695999C17.3573 1.032 17.6 1.46133 17.6 1.984C17.6 2.992 17.1146 3.98133 16.144 4.952C15.2106 5.88533 14.2213 6.65067 13.176 7.248C12.616 7.584 11.888 7.864 10.992 8.088C10.1333 8.312 9.47997 8.424 9.03197 8.424C8.24797 8.424 7.85597 8.05067 7.85597 7.304C7.85597 7.08 7.93064 6.87467 8.07997 6.688C8.2293 6.50133 8.54664 6.22133 9.03197 5.848C9.1813 5.69867 9.4053 5.49333 9.70397 5.232C10.04 4.93333 10.3573 4.59733 10.656 4.224C10.9546 3.81333 11.2533 3.272 11.552 2.6C12 1.704 12.4853 1.088 13.008 0.751998C13.568 0.378665 14.24 0.191999 15.024 0.191999ZM23.144 21.024C23.4426 21.5467 23.6853 22.312 23.872 23.32C24.0586 24.2907 24.152 25.168 24.152 25.952C24.152 27.408 23.8346 29.48 23.2 32.168C20.624 36.872 16.816 39.224 11.776 39.224C9.9093 39.224 8.0053 38.608 6.06397 37.376C4.12264 36.144 2.77864 34.7253 2.03197 33.12C1.02397 29.9093 0.51997 27.8747 0.51997 27.016C0.51997 25.5227 0.837303 23.936 1.47197 22.256C2.14397 20.576 2.98397 19.12 3.99197 17.888C4.62664 17.0293 5.7653 16.3013 7.40797 15.704C9.05064 15.0693 10.544 14.752 11.888 14.752C14.5013 14.752 16.7226 15.256 18.552 16.264C20.3813 17.2347 21.912 18.8213 23.144 21.024ZM18.272 30.04C18.4586 29.5547 18.552 28.304 18.552 26.288C18.552 25.2053 18.3466 24.1413 17.936 23.096C17.5626 22.0507 17.0026 21.1547 16.256 20.408C16.1813 20.3333 15.976 20.2213 15.64 20.072C15.304 19.8853 14.8373 19.7173 14.24 19.568C13.68 19.3813 13.0266 19.288 12.28 19.288C10.1893 19.288 8.65864 20.128 7.68797 21.808C6.7173 23.488 6.23197 25.392 6.23197 27.52C6.23197 27.8933 6.3253 28.6027 6.51197 29.648C6.73597 30.6933 6.92264 31.3467 7.07197 31.608C7.18397 31.8693 7.46397 32.2427 7.91197 32.728C8.3973 33.176 8.97597 33.5867 9.64797 33.96C10.3573 34.296 11.0853 34.464 11.832 34.464C13.512 34.464 14.856 34.072 15.864 33.288C16.872 32.4667 17.6746 31.384 18.272 30.04ZM26.6562 37.432C28.6722 37.432 30.4642 38.44 31.9202 39.28C32.7042 39.728 34.6082 40.624 36.0082 40.624C37.3522 40.624 38.6402 40.12 40.2082 39.28C41.4962 38.552 42.8962 37.432 45.3042 37.432C47.7682 37.432 49.1122 38.552 50.4562 39.28C52.0242 40.12 53.3122 40.624 54.6562 40.624C56.0002 40.624 57.9602 39.728 58.7442 39.28C60.1442 38.44 61.9362 37.432 63.9522 37.432C65.9682 37.432 67.7602 38.44 69.1602 39.28C69.9442 39.728 71.9042 40.624 73.2482 40.624C74.5922 40.624 75.8802 40.12 77.4482 39.28C78.7922 38.552 80.2482 37.432 82.6562 37.432V40.624C80.6962 40.624 79.3522 41.52 78.6242 41.968C76.7762 42.976 75.3202 43.816 73.2482 43.816C71.1762 43.816 69.3282 42.64 68.0402 41.968C66.4722 41.128 65.2402 40.624 63.9522 40.624C62.6642 40.624 61.4322 41.128 59.8642 41.968C58.5762 42.696 56.7282 43.816 54.6562 43.816C52.5842 43.816 51.1282 42.976 49.2802 41.968C48.5522 41.52 47.2642 40.624 45.3042 40.624C43.3442 40.624 42.1122 41.52 41.3842 41.968C39.4802 42.976 38.0242 43.816 36.0082 43.816C33.9362 43.816 32.0322 42.64 30.8002 41.968C29.2322 41.128 28.0002 40.624 26.6562 40.624V37.432ZM93.5202 0.191999C94.3042 0.191999 94.9576 0.378665 95.4802 0.751998C96.0029 1.088 96.4882 1.704 96.9362 2.6C97.3096 3.384 97.6456 3.98133 97.9442 4.392C98.2802 4.76533 98.5789 5.08266 98.8402 5.344C99.1389 5.568 99.3629 5.736 99.5122 5.848C99.9602 6.22133 100.259 6.50133 100.408 6.688C100.558 6.87467 100.632 7.08 100.632 7.304C100.632 7.64 100.539 7.92 100.352 8.144C100.166 8.33067 99.8856 8.424 99.5122 8.424C99.0269 8.424 98.3362 8.312 97.4402 8.088C96.5816 7.864 95.8722 7.584 95.3122 7.248C94.2296 6.61333 93.2216 5.82933 92.2882 4.896C91.3549 3.96267 90.8882 2.992 90.8882 1.984C90.8882 1.46133 91.1309 1.032 91.6162 0.695999C92.1016 0.359999 92.7362 0.191999 93.5202 0.191999ZM107.8 21.024C108.099 21.5467 108.342 22.312 108.528 23.32C108.715 24.2907 108.808 25.168 108.808 25.952C108.808 27.408 108.491 29.48 107.856 32.168C105.28 36.872 101.472 39.224 96.4322 39.224C94.5656 39.224 92.6616 38.608 90.7202 37.376C88.7789 36.144 87.4349 34.7253 86.6882 33.12C85.6802 29.9093 85.1762 27.8747 85.1762 27.016C85.1762 25.5227 85.4936 23.936 86.1282 22.256C86.8002 20.576 87.6402 19.12 88.6482 17.888C89.2829 17.0293 90.4216 16.3013 92.0642 15.704C93.7069 15.0693 95.2002 14.752 96.5442 14.752C99.1576 14.752 101.379 15.256 103.208 16.264C105.038 17.2347 106.568 18.8213 107.8 21.024ZM102.928 30.04C103.115 29.5547 103.208 28.304 103.208 26.288C103.208 25.2053 103.003 24.1413 102.592 23.096C102.219 22.0507 101.659 21.1547 100.912 20.408C100.838 20.3333 100.632 20.2213 100.296 20.072C99.9602 19.8853 99.4936 19.7173 98.8962 19.568C98.3362 19.3813 97.6829 19.288 96.9362 19.288C94.8456 19.288 93.3149 20.128 92.3442 21.808C91.3736 23.488 90.8882 25.392 90.8882 27.52C90.8882 27.8933 90.9816 28.6027 91.1682 29.648C91.3922 30.6933 91.5789 31.3467 91.7282 31.608C91.8402 31.8693 92.1202 32.2427 92.5682 32.728C93.0536 33.176 93.6322 33.5867 94.3042 33.96C95.0136 34.296 95.7416 34.464 96.4882 34.464C98.1682 34.464 99.5122 34.072 100.52 33.288C101.528 32.4667 102.331 31.384 102.928 30.04Z" fill="white"/>
</svg>
