<svg width="26" height="25" viewBox="0 0 26 25" fill="none" xmlns="http://www.w3.org/2000/svg">
<path d="M7.38567 2.66602C6.43546 3.55615 5.91238 4.77441 5.91238 6.09766C5.91238 7.40137 6.4077 8.77686 7.27219 9.87109C8.23507 11.0908 9.49406 11.7627 10.8173 11.7627C12.1406 11.7627 13.3996 11.0908 14.3625 9.87109C15.2265 8.77637 15.7223 7.40088 15.7223 6.09766C15.7223 4.77441 15.1992 3.55615 14.249 2.66602C13.3378 1.8125 12.1192 1.34277 10.8178 1.34277C9.51646 1.34277 8.29643 1.81299 7.38567 2.66602ZM14.1628 6.09766C14.1628 7.95605 12.67 10.2002 10.8169 10.2002C8.96368 10.2002 7.4709 7.95605 7.4709 6.09766C7.4709 5.2124 7.81865 4.39893 8.44985 3.80762C9.07131 3.22559 9.91194 2.90479 10.8169 2.90479C11.7218 2.90479 12.5624 3.22559 13.1839 3.80762C13.8151 4.39893 14.1628 5.2124 14.1628 6.09766Z" fill="#8A5B4A"/>
<path d="M19.1092 13.8951C18.5647 13.8951 18.0372 13.983 17.5331 14.1568C17.3724 13.9723 17.1975 13.7945 17.0091 13.6256C16.5965 13.255 16.1226 12.9278 15.601 12.6529C15.3439 12.5172 15.0687 12.3912 14.7823 12.2784C14.5563 12.1896 14.3021 12.211 14.0946 12.337C13.0801 12.9513 11.9468 13.276 10.8164 13.276C9.68596 13.276 8.55262 12.9513 7.53812 12.337C7.33064 12.2115 7.07641 12.1896 6.85091 12.2784C6.56599 12.3902 6.29082 12.5162 6.03269 12.6525C4.83944 13.2809 3.898 14.1915 3.38125 15.2164C2.87571 16.2189 2.71304 17.42 2.88496 18.8888C3.07296 20.4982 3.32184 21.8683 3.64523 23.0777C3.73679 23.4191 4.04509 23.6568 4.3977 23.6568H17.2355C17.4294 23.6568 17.6096 23.5851 17.7479 23.4635C18.1872 23.5919 18.6426 23.6568 19.1092 23.6568C21.7937 23.6568 23.9776 21.4674 23.9776 18.776C23.9776 16.0851 21.7937 13.8951 19.1092 13.8951ZM5.00504 22.0948C4.77077 21.1012 4.58229 19.9864 4.43277 18.7076C4.29591 17.5367 4.40403 16.652 4.77223 15.9215C5.14384 15.1837 5.84907 14.5143 6.75789 14.0353C6.86309 13.9796 6.9717 13.9264 7.08323 13.8756C8.24968 14.5065 9.53205 14.8385 10.8159 14.8385C12.0997 14.8385 13.3821 14.5069 14.5485 13.8761C14.6606 13.9274 14.7697 13.9806 14.8749 14.0362C15.2835 14.2516 15.6517 14.505 15.9697 14.7911C16.0189 14.8351 16.0671 14.88 16.1139 14.9254C16.1051 14.9322 16.0963 14.9396 16.0876 14.9464C16.073 14.9581 16.0584 14.9698 16.0437 14.9816C16.017 15.0035 15.9902 15.0255 15.9639 15.0475C15.9497 15.0592 15.9361 15.0709 15.922 15.0831C15.8933 15.108 15.865 15.1329 15.8368 15.1583C15.8265 15.1676 15.8158 15.1769 15.8056 15.1866C15.7676 15.2218 15.7296 15.2574 15.6926 15.2936C15.6872 15.2989 15.6814 15.3048 15.676 15.3102C15.6449 15.3409 15.6142 15.3722 15.584 15.4039C15.5723 15.4161 15.5611 15.4283 15.5494 15.4405C15.5251 15.4664 15.5012 15.4923 15.4778 15.5187C15.4656 15.5323 15.4535 15.5455 15.4418 15.5592C15.4184 15.5856 15.3955 15.6124 15.3731 15.6393C15.3624 15.652 15.3517 15.6651 15.341 15.6778C15.3142 15.7106 15.2879 15.7438 15.2616 15.7775C15.2562 15.7848 15.2504 15.7916 15.245 15.7989C15.2133 15.84 15.1827 15.8815 15.1525 15.9234C15.1452 15.9332 15.1383 15.9435 15.1315 15.9537C15.1086 15.9859 15.0867 16.0182 15.0648 16.0504C15.0551 16.0646 15.0458 16.0787 15.0366 16.0934C15.0176 16.1227 14.9986 16.152 14.9796 16.1817C14.9703 16.1969 14.9611 16.2115 14.9518 16.2267C14.9328 16.2579 14.9143 16.2892 14.8958 16.3209C14.888 16.3341 14.8807 16.3468 14.8729 16.36C14.8223 16.4493 14.774 16.5406 14.7292 16.6334C14.7229 16.6466 14.7166 16.6603 14.7102 16.6739C14.6947 16.7071 14.6791 16.7408 14.664 16.7745C14.6567 16.7906 14.6498 16.8072 14.6425 16.8233C14.6284 16.8556 14.6153 16.8878 14.6021 16.92C14.5953 16.9361 14.589 16.9523 14.5826 16.9684C14.5685 17.0045 14.5549 17.0406 14.5412 17.0768C14.5369 17.089 14.532 17.1012 14.5276 17.1139C14.5101 17.1627 14.493 17.212 14.4774 17.2613C14.475 17.2692 14.4726 17.277 14.4701 17.2848C14.457 17.3263 14.4443 17.3678 14.4321 17.4098C14.4273 17.4259 14.4229 17.4425 14.4185 17.4586C14.4092 17.4928 14.4 17.527 14.3912 17.5611C14.3868 17.5792 14.382 17.5973 14.3781 17.6153C14.3698 17.6495 14.362 17.6842 14.3542 17.7184C14.3503 17.7355 14.3469 17.7521 14.343 17.7692C14.3342 17.8107 14.3265 17.8526 14.3187 17.8946C14.3167 17.9044 14.3148 17.9137 14.3133 17.9234C14.3045 17.9752 14.2963 18.027 14.289 18.0792C14.287 18.0929 14.2855 18.107 14.2836 18.1207C14.2787 18.1593 14.2739 18.1974 14.2695 18.2359C14.2675 18.2545 14.2656 18.2731 14.2641 18.2921C14.2607 18.3268 14.2578 18.3619 14.2549 18.3966C14.2534 18.4156 14.2519 18.4352 14.251 18.4542C14.2485 18.4908 14.2466 18.5275 14.2451 18.5646C14.2446 18.5812 14.2437 18.5983 14.2432 18.6149C14.2412 18.6681 14.2402 18.7218 14.2402 18.7755C14.2402 19.712 14.5062 20.6227 15.0083 21.4078C15.0439 21.4635 15.0809 21.5182 15.1189 21.5724C15.1301 21.5885 15.1422 21.6046 15.1534 21.6207C15.1807 21.6593 15.209 21.6969 15.2377 21.7345C15.2509 21.7516 15.264 21.7687 15.2772 21.7858C15.3083 21.8258 15.3405 21.8649 15.3726 21.9039C15.3824 21.9156 15.3921 21.9278 15.4023 21.9396C15.4447 21.9894 15.488 22.0387 15.5324 22.0865C15.5343 22.089 15.5363 22.0914 15.5387 22.0934H5.00504V22.0948ZM19.1092 22.0948C18.607 22.0948 18.1249 21.985 17.6763 21.7687C16.5357 21.2189 15.7988 20.0441 15.7988 18.7765C15.7988 18.6974 15.8017 18.6188 15.807 18.5406C15.8884 17.3702 16.5717 16.3365 17.632 15.8058C18.0922 15.5748 18.5895 15.4576 19.1092 15.4576C20.9341 15.4576 22.4191 16.9464 22.4191 18.7765C22.4191 20.6061 20.9341 22.0948 19.1092 22.0948Z" fill="#8A5B4A"/>
<path d="M20.3721 17.9951H19.8884V17.5103C19.8884 17.0786 19.5397 16.729 19.1092 16.729C18.6786 16.729 18.3299 17.0786 18.3299 17.5103V17.9951H17.8463C17.4157 17.9951 17.067 18.3447 17.067 18.7764C17.067 19.208 17.4157 19.5576 17.8463 19.5576H18.3299V20.0425C18.3299 20.4741 18.6786 20.8237 19.1092 20.8237C19.5397 20.8237 19.8884 20.4741 19.8884 20.0425V19.5576H20.3721C20.8026 19.5576 21.1513 19.208 21.1513 18.7764C21.1513 18.3447 20.8021 17.9951 20.3721 17.9951Z" fill="#8A5B4A"/>
</svg>
