<svg width="20" height="22" viewBox="0 0 20 22" fill="none" xmlns="http://www.w3.org/2000/svg">
<path fill-rule="evenodd" clip-rule="evenodd" d="M13 7.84539C12.448 7.84539 12 8.30697 12 8.8757C12 9.44442 12.448 9.906 13 9.906C13.552 9.906 14 9.44442 14 8.8757C14 8.30697 13.552 7.84539 13 7.84539ZM9 15.0575C8.416 15.0575 7.852 14.9875 7.31 14.8685L4.956 16.3263L4.9875 13.9365C3.183 12.8187 2 10.9703 2 8.8757C2 5.46179 5.134 2.69388 9 2.69388C12.866 2.69388 16 5.46179 16 8.8757C16 12.2901 12.866 15.0575 9 15.0575ZM9 1.66357C4.582 1.66357 1 4.89306 1 8.8757C1 11.1522 2.1725 13.1793 4 14.5006V18.1484L7.5045 15.9575C7.9895 16.0399 8.4885 16.0878 9 16.0878C13.418 16.0878 17 12.8588 17 8.8757C17 4.89306 13.418 1.66357 9 1.66357ZM5 7.84539C4.448 7.84539 4 8.30697 4 8.8757C4 9.44442 4.448 9.906 5 9.906C5.552 9.906 6 9.44442 6 8.8757C6 8.30697 5.552 7.84539 5 7.84539ZM9 7.84539C8.448 7.84539 8 8.30697 8 8.8757C8 9.44442 8.448 9.906 9 9.906C9.552 9.906 10 9.44442 10 8.8757C10 8.30697 9.552 7.84539 9 7.84539Z" fill="#8A5B4A"/>
</svg>
