<svg width="20" height="20" viewBox="0 0 20 20" fill="none" xmlns="http://www.w3.org/2000/svg">
<path d="M10.001 4.16675C6.26963 4.16675 3.11106 6.61915 2.04916 10.0001C3.11105 13.381 6.26963 15.8334 10.001 15.8334C13.7323 15.8334 16.8909 13.381 17.9528 10.0001C16.8909 6.61917 13.7323 4.16675 10.001 4.16675Z" stroke="#8A5B4A" stroke-width="1.5" stroke-linecap="round" stroke-linejoin="round"/>
<path d="M8.07742 10.0932C7.85349 9.30472 8.11581 8.32266 8.85797 8.05743C9.24824 7.91407 9.72809 8.03593 10.0032 8.45886C10.2591 8.02159 10.7582 7.92123 11.142 8.05743C11.8842 8.32266 12.1465 9.30472 11.9226 10.0932C11.5707 11.3477 10.3423 12 10.0032 12C9.65771 12 8.4421 11.362 8.07742 10.0932Z" fill="#8A5B4A"/>
</svg>
