<svg width="13" height="13" viewBox="0 0 13 13" fill="none" xmlns="http://www.w3.org/2000/svg">
<path d="M1.625 7.04166V8.01666C1.625 8.62339 1.625 8.92677 1.74308 9.1585C1.84694 9.36233 2.01267 9.52808 2.21651 9.63191C2.44825 9.75 2.75161 9.75 3.35833 9.75H8.79916C8.95175 9.75 9.02807 9.75 9.10282 9.76045C9.16917 9.76977 9.23455 9.78521 9.29803 9.80655C9.36959 9.8306 9.43784 9.86472 9.57434 9.93297L11.375 10.8333V3.9C11.375 3.29328 11.375 2.98991 11.2569 2.75818C11.1531 2.55433 10.9873 2.3886 10.7835 2.28474C10.5518 2.16667 10.2484 2.16667 9.64167 2.16667H7.04167M4.39905 2.10095C5.03365 2.73555 5.03365 3.76445 4.39905 4.39905C3.76445 5.03365 2.73555 5.03365 2.10095 4.39905C1.46635 3.76445 1.46635 2.73555 2.10095 2.10095C2.73555 1.46635 3.76445 1.46635 4.39905 2.10095Z" stroke="black" stroke-width="1.5" stroke-linecap="round" stroke-linejoin="round"/>
</svg>
