<svg width="56" height="13" viewBox="0 0 56 13" fill="none" xmlns="http://www.w3.org/2000/svg">
<path d="M1.826 10.066C1.66467 10.066 1.54733 10.0367 1.474 9.978C1.298 9.87533 1.144 9.74333 1.012 9.582C0.88 9.406 0.814 9.164 0.814 8.856C0.828667 8.636 0.88 8.44533 0.968 8.284C1.056 8.108 1.18067 7.98333 1.342 7.91C1.65 7.74867 2.046 7.668 2.53 7.668C2.882 7.668 3.168 7.8 3.388 8.064C3.608 8.31333 3.718 8.62133 3.718 8.988C3.718 9.428 3.586 9.934 3.322 10.506C3.07267 11.0927 2.82333 11.5473 2.574 11.87C2.38333 12.09 2.16333 12.2807 1.914 12.442C1.67933 12.6033 1.474 12.684 1.298 12.684C0.946 12.684 0.718667 12.6253 0.616 12.508C0.528 12.4053 0.484 12.2147 0.484 11.936C0.484 11.8187 0.638 11.6353 0.946 11.386C1.19533 11.166 1.34933 11.012 1.408 10.924C1.628 10.6307 1.78933 10.3447 1.892 10.066H1.826ZM16.6167 5.622C16.6167 5.93 16.4554 6.216 16.1327 6.48C15.8247 6.744 15.4507 6.94933 15.0107 7.096C14.908 7.12533 14.2994 7.34533 13.1847 7.756C11.2047 8.51867 9.76004 9.03933 8.8507 9.318C8.52804 9.406 8.24204 9.50867 7.9927 9.626C7.56737 9.78733 7.2667 9.868 7.0907 9.868C6.84137 9.868 6.61404 9.758 6.4087 9.538C6.20337 9.30333 6.1007 9.04667 6.1007 8.768C6.1007 8.548 6.1667 8.33533 6.2987 8.13C6.4307 7.91 6.64337 7.756 6.9367 7.668C7.2007 7.58 7.7507 7.41867 8.5867 7.184C9.71604 6.86133 10.6767 6.58267 11.4687 6.348C12.2607 6.09867 13.0454 5.82733 13.8227 5.534L10.9187 4.324L7.7507 2.982C7.6187 2.90867 7.41337 2.79867 7.1347 2.652C6.85604 2.50533 6.65804 2.35133 6.5407 2.19C6.42337 2.02867 6.3647 1.83067 6.3647 1.596C6.3647 1.31733 6.43804 1.07533 6.5847 0.87C6.73137 0.664666 6.94404 0.562 7.2227 0.562C7.47204 0.562 7.69937 0.606 7.9047 0.694C8.11004 0.767333 8.4107 0.899333 8.8067 1.09C9.14404 1.28067 9.36404 1.398 9.4667 1.442L14.8787 3.972C15.4507 4.192 15.8834 4.41933 16.1767 4.654C16.47 4.88867 16.6167 5.21133 16.6167 5.622ZM17.3164 9.384C18.1084 9.384 18.8124 9.78 19.3844 10.11C19.6924 10.286 20.4404 10.638 20.9904 10.638C21.5184 10.638 22.0244 10.44 22.6404 10.11C23.1464 9.824 23.6964 9.384 24.6424 9.384C25.6104 9.384 26.1384 9.824 26.6664 10.11C27.2824 10.44 27.7884 10.638 28.3164 10.638C28.8444 10.638 29.6144 10.286 29.9224 10.11C30.4724 9.78 31.1764 9.384 31.9684 9.384C32.7604 9.384 33.4644 9.78 34.0144 10.11C34.3224 10.286 35.0924 10.638 35.6204 10.638C36.1484 10.638 36.6544 10.44 37.2704 10.11C37.7984 9.824 38.3704 9.384 39.3164 9.384V10.638C38.5464 10.638 38.0184 10.99 37.7324 11.166C37.0064 11.562 36.4344 11.892 35.6204 11.892C34.8064 11.892 34.0804 11.43 33.5744 11.166C32.9584 10.836 32.4744 10.638 31.9684 10.638C31.4624 10.638 30.9784 10.836 30.3624 11.166C29.8564 11.452 29.1304 11.892 28.3164 11.892C27.5024 11.892 26.9304 11.562 26.2044 11.166C25.9184 10.99 25.4124 10.638 24.6424 10.638C23.8724 10.638 23.3884 10.99 23.1024 11.166C22.3544 11.562 21.7824 11.892 20.9904 11.892C20.1764 11.892 19.4284 11.43 18.9444 11.166C18.3284 10.836 17.8444 10.638 17.3164 10.638V9.384ZM39.9984 5.622C39.9984 5.21133 40.1451 4.88867 40.4384 4.654C40.7464 4.41933 41.1864 4.192 41.7584 3.972L45.9604 1.992C46.7671 1.62533 47.1631 1.442 47.1484 1.442L47.8524 1.09C48.1751 0.913999 48.4464 0.782 48.6664 0.694C48.9011 0.606 49.1504 0.562 49.4144 0.562C49.6931 0.562 49.9057 0.664666 50.0524 0.87C50.1991 1.07533 50.2724 1.31733 50.2724 1.596C50.2724 1.88933 50.1917 2.10933 50.0304 2.256C49.8837 2.40267 49.6857 2.542 49.4364 2.674C49.2017 2.806 49.0184 2.90867 48.8864 2.982L45.7184 4.324L42.8144 5.534C43.5917 5.82733 44.3764 6.09867 45.1684 6.348C45.9604 6.58267 46.9211 6.86133 48.0504 7.184C48.8864 7.41867 49.4364 7.58 49.7004 7.668C49.9791 7.756 50.1844 7.91 50.3164 8.13C50.4484 8.33533 50.5144 8.548 50.5144 8.768C50.5144 9.06133 50.4117 9.318 50.2064 9.538C50.0157 9.758 49.7884 9.868 49.5244 9.868C49.3191 9.868 49.0184 9.78 48.6224 9.604C48.2117 9.45733 47.9331 9.362 47.7864 9.318C46.6864 8.99533 45.1977 8.46 43.3204 7.712C43.0124 7.59467 42.7044 7.48467 42.3964 7.382C42.1031 7.26467 41.8464 7.16933 41.6264 7.096C41.1864 6.94933 40.8051 6.744 40.4824 6.48C40.1597 6.216 39.9984 5.93 39.9984 5.622ZM53.2381 10.066C53.0768 10.066 52.9594 10.0367 52.8861 9.978C52.7101 9.87533 52.5561 9.74333 52.4241 9.582C52.2921 9.406 52.2261 9.164 52.2261 8.856C52.2408 8.636 52.2921 8.44533 52.3801 8.284C52.4681 8.108 52.5928 7.98333 52.7541 7.91C53.0621 7.74867 53.4581 7.668 53.9421 7.668C54.2941 7.668 54.5801 7.8 54.8001 8.064C55.0201 8.31333 55.1301 8.62133 55.1301 8.988C55.1301 9.428 54.9981 9.934 54.7341 10.506C54.4848 11.0927 54.2354 11.5473 53.9861 11.87C53.7954 12.09 53.5754 12.2807 53.3261 12.442C53.0914 12.6033 52.8861 12.684 52.7101 12.684C52.3581 12.684 52.1308 12.6253 52.0281 12.508C51.9401 12.4053 51.8961 12.2147 51.8961 11.936C51.8961 11.8187 52.0501 11.6353 52.3581 11.386C52.6074 11.166 52.7614 11.012 52.8201 10.924C53.0401 10.6307 53.2014 10.3447 53.3041 10.066H53.2381Z" fill="#8A5B4A"/>
</svg>
