<svg width="50" height="16" viewBox="0 0 50 16" fill="none" xmlns="http://www.w3.org/2000/svg">
<path d="M2.618 9.522C2.38333 9.75667 2.12667 9.874 1.848 9.874C1.59867 9.874 1.342 9.80067 1.078 9.654C0.814 9.50733 0.682 9.37533 0.682 9.258C0.682 9.06733 0.814 8.67867 1.078 8.092C1.342 7.49067 1.72333 6.684 2.222 5.672C2.80867 4.46933 3.21933 3.58933 3.454 3.032C3.65933 2.51867 3.94533 2.03467 4.312 1.58C4.69333 1.11067 5.126 0.876 5.61 0.876C5.90333 0.876 6.21133 0.993333 6.534 1.228C6.68067 1.33067 7.062 1.81467 7.678 2.68C8.294 3.53067 8.734 4.16133 8.998 4.572C9.29133 4.99733 9.54067 5.45933 9.746 5.958C9.95133 6.442 10.2007 6.91867 10.494 7.388C10.6113 7.54933 10.7213 7.696 10.824 7.828C11.176 8.23867 11.352 8.58333 11.352 8.862C11.352 9.14067 11.2273 9.368 10.978 9.544C10.7287 9.72 10.45 9.808 10.142 9.808C9.89267 9.808 9.65067 9.70533 9.416 9.5C9.18133 9.28 8.96133 9.02333 8.756 8.73C8.56533 8.422 8.404 8.158 8.272 7.938C7.99333 7.454 7.7 6.904 7.392 6.288C7.084 5.68667 6.81267 5.18067 6.578 4.77C6.358 4.35933 6.094 3.94133 5.786 3.516C5.53667 3.736 5.19933 4.198 4.774 4.902C4.34867 5.606 4.07733 6.09733 3.96 6.376C3.85733 6.58133 3.68133 7.02867 3.432 7.718C3.168 8.554 2.89667 9.15533 2.618 9.522ZM15.7273 5.474C16.6659 5.474 17.3553 5.65733 17.7953 6.024C18.2499 6.39067 18.4773 6.89667 18.4773 7.542C18.4773 7.982 18.3746 8.41467 18.1693 8.84C17.9786 9.26533 17.6999 9.61733 17.3333 9.896C16.9813 10.1747 16.5779 10.314 16.1233 10.314C15.1846 10.314 14.4953 10.072 14.0553 9.588C13.6299 9.104 13.4173 8.51 13.4173 7.806C13.4173 7.20467 13.6153 6.66933 14.0113 6.2C14.4073 5.716 14.9793 5.474 15.7273 5.474ZM26.143 9.346C26.187 9.22867 26.341 8.80333 26.605 8.07C26.8837 7.33667 27.1404 6.77933 27.375 6.398C27.7564 5.79667 28.0937 5.496 28.387 5.496C28.7977 5.496 29.113 5.57667 29.333 5.738C29.553 5.88467 29.663 6.09733 29.663 6.376C29.663 6.508 29.6044 6.69133 29.487 6.926C29.3844 7.16067 29.3257 7.3 29.311 7.344C28.7244 8.63467 28.1964 10.0207 27.727 11.502L27.265 13.218C27.089 13.7753 26.7884 14.23 26.363 14.582C25.9377 14.9193 25.439 15.088 24.867 15.088C24.3537 15.088 23.877 14.8533 23.437 14.384C23.173 13.9733 22.8944 13.4527 22.601 12.822C22.3224 12.1913 22.0804 11.5753 21.875 10.974L21.105 8.664C20.9437 8.20933 20.8117 7.82067 20.709 7.498C20.621 7.17533 20.577 6.882 20.577 6.618C20.5624 6.31 20.6504 6.06067 20.841 5.87C21.0317 5.67933 21.2957 5.584 21.633 5.584C22.0144 5.584 22.2857 5.66467 22.447 5.826C22.6084 5.97267 22.755 6.20733 22.887 6.53C22.9457 6.86733 23.107 7.55667 23.371 8.598L23.525 9.214C23.657 9.71267 23.8257 10.2187 24.031 10.732C24.2364 11.2453 24.4417 11.7367 24.647 12.206C24.6177 12.1327 24.7204 12.3747 24.955 12.932C25.1017 12.5067 25.2704 11.986 25.461 11.37L26.143 9.346ZM33.7526 5.474C34.6913 5.474 35.3806 5.65733 35.8206 6.024C36.2753 6.39067 36.5026 6.89667 36.5026 7.542C36.5026 7.982 36.4 8.41467 36.1946 8.84C36.004 9.26533 35.7253 9.61733 35.3586 9.896C35.0066 10.1747 34.6033 10.314 34.1486 10.314C33.21 10.314 32.5206 10.072 32.0806 9.588C31.6553 9.104 31.4426 8.51 31.4426 7.806C31.4426 7.20467 31.6406 6.66933 32.0366 6.2C32.4326 5.716 33.0046 5.474 33.7526 5.474ZM40.5164 9.522C40.2818 9.75667 40.0251 9.874 39.7464 9.874C39.4971 9.874 39.2404 9.80067 38.9764 9.654C38.7124 9.50733 38.5804 9.37533 38.5804 9.258C38.5804 9.06733 38.7124 8.67867 38.9764 8.092C39.2404 7.49067 39.6218 6.684 40.1204 5.672C40.7071 4.46933 41.1178 3.58933 41.3524 3.032C41.5578 2.51867 41.8438 2.03467 42.2104 1.58C42.5918 1.11067 43.0244 0.876 43.5084 0.876C43.8018 0.876 44.1098 0.993333 44.4324 1.228C44.5791 1.33067 44.9604 1.81467 45.5764 2.68C46.1924 3.53067 46.6324 4.16133 46.8964 4.572C47.1898 4.99733 47.4391 5.45933 47.6444 5.958C47.8498 6.442 48.0991 6.91867 48.3924 7.388C48.5098 7.54933 48.6198 7.696 48.7224 7.828C49.0744 8.23867 49.2504 8.58333 49.2504 8.862C49.2504 9.14067 49.1258 9.368 48.8764 9.544C48.6271 9.72 48.3484 9.808 48.0404 9.808C47.7911 9.808 47.5491 9.70533 47.3144 9.5C47.0798 9.28 46.8598 9.02333 46.6544 8.73C46.4638 8.422 46.3024 8.158 46.1704 7.938C45.8918 7.454 45.5984 6.904 45.2904 6.288C44.9824 5.68667 44.7111 5.18067 44.4764 4.77C44.2564 4.35933 43.9924 3.94133 43.6844 3.516C43.4351 3.736 43.0978 4.198 42.6724 4.902C42.2471 5.606 41.9758 6.09733 41.8584 6.376C41.7558 6.58133 41.5798 7.02867 41.3304 7.718C41.0664 8.554 40.7951 9.15533 40.5164 9.522Z" fill="#8A5B4A"/>
</svg>
