<svg width="192" height="70" viewBox="0 0 176 53" fill="none" xmlns="http://www.w3.org/2000/svg">
<path d="M46.603 32.896C46.603 34.24 45.899 35.488 44.491 36.64C43.147 37.792 41.515 38.688 39.595 39.328C39.147 39.456 36.491 40.416 31.627 42.208C22.987 45.536 16.683 47.808 12.715 49.024C11.307 49.408 10.059 49.856 8.971 50.368C7.115 51.072 5.803 51.424 5.035 51.424C3.947 51.424 2.955 50.944 2.059 49.984C1.163 48.96 0.715 47.84 0.715 46.624C0.715 45.664 1.003 44.736 1.579 43.84C2.155 42.88 3.083 42.208 4.363 41.824C5.515 41.44 7.915 40.736 11.563 39.712C16.491 38.304 20.683 37.088 24.139 36.064C27.595 34.976 31.019 33.792 34.411 32.512L21.739 27.232L7.915 21.376C7.339 21.056 6.443 20.576 5.227 19.936C4.011 19.296 3.147 18.624 2.635 17.92C2.123 17.216 1.867 16.352 1.867 15.328C1.867 14.112 2.187 13.056 2.827 12.16C3.467 11.264 4.395 10.816 5.611 10.816C6.699 10.816 7.691 11.008 8.587 11.392C9.483 11.712 10.795 12.288 12.523 13.12C13.995 13.952 14.955 14.464 15.403 14.656L39.019 25.696C41.515 26.656 43.403 27.648 44.683 28.672C45.963 29.696 46.603 31.104 46.603 32.896ZM74.2323 52.96C70.2643 52.96 66.9043 51.872 64.1523 49.696C61.4643 47.52 59.4163 44.48 58.0083 40.576C56.6003 36.672 55.8963 32.16 55.8963 27.04C55.8963 20.96 56.7283 15.712 58.3923 11.296C60.0563 6.88 62.0723 3.296 64.4403 0.543999H73.0803C71.4803 2.4 70.0083 4.608 68.6643 7.168C67.3843 9.664 66.3283 12.576 65.4963 15.904C64.7283 19.232 64.3443 22.976 64.3443 27.136C64.3443 33.344 65.3043 38.048 67.2243 41.248C69.1443 44.384 71.6723 45.952 74.8083 45.952C76.9203 45.952 78.6483 45.408 79.9923 44.32C81.4003 43.232 82.4243 41.76 83.0643 39.904C83.7043 37.984 84.0243 35.84 84.0243 33.472V18.016H92.0883V33.472C92.0883 36.096 92.4403 38.368 93.1443 40.288C93.9123 42.144 94.9683 43.552 96.3123 44.512C97.6563 45.472 99.2883 45.952 101.208 45.952C103.384 45.952 105.24 45.248 106.776 43.84C108.376 42.432 109.592 40.32 110.424 37.504C111.32 34.688 111.768 31.232 111.768 27.136C111.768 23.104 111.416 19.488 110.712 16.288C110.008 13.024 108.984 10.112 107.64 7.552C106.36 4.928 104.824 2.592 103.032 0.543999H111.672C113.4 2.528 114.904 4.832 116.184 7.456C117.464 10.016 118.456 12.928 119.16 16.192C119.864 19.456 120.216 23.072 120.216 27.04C120.216 32.16 119.512 36.672 118.104 40.576C116.696 44.48 114.616 47.52 111.864 49.696C109.176 51.872 105.848 52.96 101.88 52.96C98.3603 52.96 95.4803 52.16 93.2403 50.56C91.0003 48.896 89.3363 46.176 88.2483 42.4H87.7683C87.1283 44.896 86.2003 46.944 84.9843 48.544C83.7683 50.08 82.2643 51.2 80.4723 51.904C78.6803 52.608 76.6003 52.96 74.2323 52.96ZM129.32 32.896C129.32 31.104 129.96 29.696 131.24 28.672C132.584 27.648 134.504 26.656 137 25.696L155.336 17.056C158.856 15.456 160.584 14.656 160.52 14.656L163.592 13.12C165 12.352 166.184 11.776 167.144 11.392C168.168 11.008 169.256 10.816 170.408 10.816C171.624 10.816 172.552 11.264 173.192 12.16C173.832 13.056 174.152 14.112 174.152 15.328C174.152 16.608 173.8 17.568 173.096 18.208C172.456 18.848 171.592 19.456 170.504 20.032C169.48 20.608 168.68 21.056 168.104 21.376L154.28 27.232L141.608 32.512C145 33.792 148.424 34.976 151.88 36.064C155.336 37.088 159.528 38.304 164.456 39.712C168.104 40.736 170.504 41.44 171.656 41.824C172.872 42.208 173.768 42.88 174.344 43.84C174.92 44.736 175.208 45.664 175.208 46.624C175.208 47.904 174.76 49.024 173.864 49.984C173.032 50.944 172.04 51.424 170.888 51.424C169.992 51.424 168.68 51.04 166.952 50.272C165.16 49.632 163.944 49.216 163.304 49.024C158.504 47.616 152.008 45.28 143.816 42.016C142.472 41.504 141.128 41.024 139.784 40.576C138.504 40.064 137.384 39.648 136.424 39.328C134.504 38.688 132.84 37.792 131.432 36.64C130.024 35.488 129.32 34.24 129.32 32.896Z" fill="#FFC4C4"/>
</svg>
