<svg width="175" height="53" viewBox="0 0 175 53" fill="none" xmlns="http://www.w3.org/2000/svg">
<path d="M46.103 32.896C46.103 34.24 45.399 35.488 43.991 36.64C42.647 37.792 41.015 38.688 39.095 39.328C38.647 39.456 35.991 40.416 31.127 42.208C22.487 45.536 16.183 47.808 12.215 49.024C10.807 49.408 9.559 49.856 8.471 50.368C6.615 51.072 5.303 51.424 4.535 51.424C3.447 51.424 2.455 50.944 1.559 49.984C0.663 48.96 0.215 47.84 0.215 46.624C0.215 45.664 0.503 44.736 1.079 43.84C1.655 42.88 2.583 42.208 3.863 41.824C5.015 41.44 7.415 40.736 11.063 39.712C15.991 38.304 20.183 37.088 23.639 36.064C27.095 34.976 30.519 33.792 33.911 32.512L21.239 27.232L7.415 21.376C6.839 21.056 5.943 20.576 4.727 19.936C3.511 19.296 2.647 18.624 2.135 17.92C1.623 17.216 1.367 16.352 1.367 15.328C1.367 14.112 1.687 13.056 2.327 12.16C2.967 11.264 3.895 10.816 5.111 10.816C6.199 10.816 7.191 11.008 8.087 11.392C8.983 11.712 10.295 12.288 12.023 13.12C13.495 13.952 14.455 14.464 14.903 14.656L38.519 25.696C41.015 26.656 42.903 27.648 44.183 28.672C45.463 29.696 46.103 31.104 46.103 32.896ZM73.7323 52.96C69.7643 52.96 66.4043 51.872 63.6523 49.696C60.9643 47.52 58.9163 44.48 57.5083 40.576C56.1003 36.672 55.3963 32.16 55.3963 27.04C55.3963 20.96 56.2283 15.712 57.8923 11.296C59.5563 6.88 61.5723 3.296 63.9403 0.543999H72.5803C70.9803 2.4 69.5083 4.608 68.1643 7.168C66.8843 9.664 65.8283 12.576 64.9963 15.904C64.2283 19.232 63.8443 22.976 63.8443 27.136C63.8443 33.344 64.8043 38.048 66.7243 41.248C68.6443 44.384 71.1723 45.952 74.3083 45.952C76.4203 45.952 78.1483 45.408 79.4923 44.32C80.9003 43.232 81.9243 41.76 82.5643 39.904C83.2043 37.984 83.5243 35.84 83.5243 33.472V18.016H91.5883V33.472C91.5883 36.096 91.9403 38.368 92.6443 40.288C93.4123 42.144 94.4683 43.552 95.8123 44.512C97.1563 45.472 98.7883 45.952 100.708 45.952C102.884 45.952 104.74 45.248 106.276 43.84C107.876 42.432 109.092 40.32 109.924 37.504C110.82 34.688 111.268 31.232 111.268 27.136C111.268 23.104 110.916 19.488 110.212 16.288C109.508 13.024 108.484 10.112 107.14 7.552C105.86 4.928 104.324 2.592 102.532 0.543999H111.172C112.9 2.528 114.404 4.832 115.684 7.456C116.964 10.016 117.956 12.928 118.66 16.192C119.364 19.456 119.716 23.072 119.716 27.04C119.716 32.16 119.012 36.672 117.604 40.576C116.196 44.48 114.116 47.52 111.364 49.696C108.676 51.872 105.348 52.96 101.38 52.96C97.8603 52.96 94.9803 52.16 92.7403 50.56C90.5003 48.896 88.8363 46.176 87.7483 42.4H87.2683C86.6283 44.896 85.7003 46.944 84.4843 48.544C83.2683 50.08 81.7643 51.2 79.9723 51.904C78.1803 52.608 76.1003 52.96 73.7323 52.96ZM128.82 32.896C128.82 31.104 129.46 29.696 130.74 28.672C132.084 27.648 134.004 26.656 136.5 25.696L154.836 17.056C158.356 15.456 160.084 14.656 160.02 14.656L163.092 13.12C164.5 12.352 165.684 11.776 166.644 11.392C167.668 11.008 168.756 10.816 169.908 10.816C171.124 10.816 172.052 11.264 172.692 12.16C173.332 13.056 173.652 14.112 173.652 15.328C173.652 16.608 173.3 17.568 172.596 18.208C171.956 18.848 171.092 19.456 170.004 20.032C168.98 20.608 168.18 21.056 167.604 21.376L153.78 27.232L141.108 32.512C144.5 33.792 147.924 34.976 151.38 36.064C154.836 37.088 159.028 38.304 163.956 39.712C167.604 40.736 170.004 41.44 171.156 41.824C172.372 42.208 173.268 42.88 173.844 43.84C174.42 44.736 174.708 45.664 174.708 46.624C174.708 47.904 174.26 49.024 173.364 49.984C172.532 50.944 171.54 51.424 170.388 51.424C169.492 51.424 168.18 51.04 166.452 50.272C164.66 49.632 163.444 49.216 162.804 49.024C158.004 47.616 151.508 45.28 143.316 42.016C141.972 41.504 140.628 41.024 139.284 40.576C138.004 40.064 136.884 39.648 135.924 39.328C134.004 38.688 132.34 37.792 130.932 36.64C129.524 35.488 128.82 34.24 128.82 32.896Z" fill="#FFC4C4"/>
</svg>
