<svg width="50" height="50" viewBox="0 0 50 50" fill="none" xmlns="http://www.w3.org/2000/svg">
<path d="M50 25.5555C50 23.5 49.8298 22 49.4614 20.4445H25.5102V29.7221H39.569C39.2857 32.0278 37.7551 35.5 34.3537 37.8332L34.306 38.1438L41.8789 43.8931L42.4036 43.9445C47.2221 39.5833 50 33.1666 50 25.5555Z" fill="#8A5B4A"/>
<path d="M25.5102 50C32.3978 50 38.1801 47.7777 42.4036 43.9445L34.3537 37.8332C32.1995 39.3054 29.3083 40.3332 25.5102 40.3332C18.7642 40.3332 13.0386 35.9722 10.9976 29.9445L10.6984 29.9694L2.82399 35.9416L2.72101 36.2221C6.91598 44.3887 15.5328 50 25.5102 50Z" fill="#C28068"/>
<path d="M10.9976 29.9445C10.4591 28.3889 10.1474 26.7221 10.1474 25C10.1474 23.2777 10.4591 21.6111 10.9693 20.0555L10.955 19.7242L2.98189 13.6561L2.72102 13.7777C0.992074 17.1666 0 20.9722 0 25C0 29.0278 0.992074 32.8332 2.72102 36.2221L10.9976 29.9445Z" fill="#A66D59"/>
<path d="M25.5102 9.6666C30.3004 9.6666 33.5316 11.6944 35.3741 13.3889L42.5736 6.5C38.152 2.47223 32.3978 0 25.5102 0C15.5328 0 6.91598 5.61107 2.72101 13.7777L10.9693 20.0555C13.0386 14.0278 18.7642 9.6666 25.5102 9.6666Z" fill="#8A5B4A"/>
</svg>
