<svg width="50" height="50" viewBox="0 0 50 50" fill="none" xmlns="http://www.w3.org/2000/svg">
<path d="M43.1451 7.61352C43.1451 7.61352 47.1923 6.0354 46.855 9.86799C46.7426 11.4461 45.7308 16.9696 44.9439 22.9439L42.2457 40.6416C42.2457 40.6416 42.0209 43.2342 39.9973 43.6851C37.9736 44.1359 34.9383 42.107 34.3761 41.656C33.9265 41.3179 25.9446 36.2453 23.134 33.7654C22.347 33.0891 21.4476 31.7363 23.2464 30.1582L35.0507 18.8859C36.3998 17.5332 37.7489 14.377 32.1277 18.2096L16.3886 28.9183C16.3886 28.9183 14.5899 30.0455 11.2173 29.031L3.90981 26.7766C3.90981 26.7766 1.21168 25.0857 5.82099 23.3948C17.0632 18.0968 30.8911 12.686 43.1451 7.61352Z" fill="#8A5B4A"/>
</svg>
