<svg width="50" height="50" viewBox="0 0 50 50" fill="none" xmlns="http://www.w3.org/2000/svg">
<path fill-rule="evenodd" clip-rule="evenodd" d="M15.725 44.9995C34.5925 44.9995 44.9125 29.6084 44.9125 16.2629C44.9125 15.8248 44.9125 15.39 44.8825 14.9568C46.89 13.5292 48.6225 11.7566 50 9.72849C48.13 10.5457 46.1425 11.0816 44.11 11.3178C46.25 10.0552 47.8525 8.07144 48.62 5.73069C46.605 6.90721 44.4025 7.73756 42.105 8.18308C38.22 4.11691 31.7225 3.9199 27.59 7.74485C24.9275 10.2111 23.795 13.8883 24.6225 17.3957C16.375 16.9872 8.69 13.1524 3.48 6.84397C0.757501 11.459 2.15 17.3607 6.6575 20.3242C5.025 20.2774 3.4275 19.8447 2 19.062V19.1902C2.0025 23.9972 5.445 28.1363 10.23 29.0888C8.72 29.495 7.135 29.5539 5.6 29.261C6.9425 33.3764 10.795 36.1951 15.1825 36.2763C11.55 39.0872 7.0625 40.6135 2.4425 40.6086C1.6275 40.6061 0.8125 40.5593 0 40.4634C4.6925 43.4268 10.15 44.9995 15.725 44.9922" fill="#8A5B4A"/>
</svg>
