<svg width="193" height="62" viewBox="0 0 193 62" fill="none" xmlns="http://www.w3.org/2000/svg">
<path d="M11.492 5.32C11.492 7.176 11.428 9.64 11.3 12.712L11.204 18.952C11.204 25.032 11.652 30.12 12.548 34.216C13.828 39.976 15.748 44.424 18.308 47.56C20.676 50.312 23.588 51.688 27.044 51.688C29.732 51.688 32.132 50.888 34.244 49.288C36.356 47.624 37.988 45.576 39.14 43.144C41.06 39.176 42.02 34.28 42.02 28.456C42.02 24.936 41.796 20.776 41.348 15.976C40.964 10.6 40.772 6.568 40.772 3.88C40.772 2.472 41.604 1.576 43.268 1.192C44.932 0.743996 46.66 0.519995 48.452 0.519995C49.092 0.519995 49.828 0.935995 50.66 1.768C51.492 2.6 51.908 3.496 51.908 4.456C51.908 6.376 51.812 8.2 51.62 9.928C51.492 11.848 51.428 13.192 51.428 13.96C51.428 16.392 51.556 19.784 51.812 24.136C51.876 25.224 51.94 26.536 52.004 28.072C52.068 29.608 52.1 31.368 52.1 33.352C52.1 37.704 51.044 42.056 48.932 46.408C46.884 50.696 44.004 54.248 40.292 57.064C36.58 59.816 32.388 61.192 27.716 61.192C20.548 61.192 14.948 58.888 10.916 54.28C6.884 49.608 4.132 43.592 2.66 36.232C1.828 32.008 1.284 27.592 1.028 22.984C0.836 18.376 0.74 12.2 0.74 4.456C0.74 3.432 1.22 2.472 2.18 1.576C3.204 0.679998 4.292 0.231998 5.444 0.231998C9.476 0.231998 11.492 1.928 11.492 5.32ZM82.7323 61.96C78.7643 61.96 75.4043 60.872 72.6523 58.696C69.9643 56.52 67.9163 53.48 66.5083 49.576C65.1003 45.672 64.3963 41.16 64.3963 36.04C64.3963 29.96 65.2283 24.712 66.8923 20.296C68.5563 15.88 70.5723 12.296 72.9403 9.544H81.5803C79.9803 11.4 78.5083 13.608 77.1643 16.168C75.8843 18.664 74.8283 21.576 73.9963 24.904C73.2283 28.232 72.8443 31.976 72.8443 36.136C72.8443 42.344 73.8043 47.048 75.7243 50.248C77.6443 53.384 80.1723 54.952 83.3083 54.952C85.4203 54.952 87.1483 54.408 88.4923 53.32C89.9003 52.232 90.9243 50.76 91.5643 48.904C92.2043 46.984 92.5243 44.84 92.5243 42.472V27.016H100.588V42.472C100.588 45.096 100.94 47.368 101.644 49.288C102.412 51.144 103.468 52.552 104.812 53.512C106.156 54.472 107.788 54.952 109.708 54.952C111.884 54.952 113.74 54.248 115.276 52.84C116.876 51.432 118.092 49.32 118.924 46.504C119.82 43.688 120.268 40.232 120.268 36.136C120.268 32.104 119.916 28.488 119.212 25.288C118.508 22.024 117.484 19.112 116.14 16.552C114.86 13.928 113.324 11.592 111.532 9.544H120.172C121.9 11.528 123.404 13.832 124.684 16.456C125.964 19.016 126.956 21.928 127.66 25.192C128.364 28.456 128.716 32.072 128.716 36.04C128.716 41.16 128.012 45.672 126.604 49.576C125.196 53.48 123.116 56.52 120.364 58.696C117.676 60.872 114.348 61.96 110.38 61.96C106.86 61.96 103.98 61.16 101.74 59.56C99.5003 57.896 97.8363 55.176 96.7483 51.4H96.2683C95.6283 53.896 94.7003 55.944 93.4843 57.544C92.2683 59.08 90.7643 60.2 88.9723 60.904C87.1803 61.608 85.1003 61.96 82.7323 61.96ZM151.836 5.32C151.836 7.176 151.772 9.64 151.644 12.712L151.548 18.952C151.548 25.032 151.996 30.12 152.892 34.216C154.172 39.976 156.092 44.424 158.652 47.56C161.02 50.312 163.932 51.688 167.388 51.688C170.076 51.688 172.476 50.888 174.588 49.288C176.7 47.624 178.332 45.576 179.484 43.144C181.404 39.176 182.364 34.28 182.364 28.456C182.364 24.936 182.14 20.776 181.692 15.976C181.308 10.6 181.116 6.568 181.116 3.88C181.116 2.472 181.948 1.576 183.612 1.192C185.276 0.743996 187.004 0.519995 188.796 0.519995C189.436 0.519995 190.172 0.935995 191.004 1.768C191.836 2.6 192.252 3.496 192.252 4.456C192.252 6.376 192.156 8.2 191.964 9.928C191.836 11.848 191.772 13.192 191.772 13.96C191.772 16.392 191.9 19.784 192.156 24.136C192.22 25.224 192.284 26.536 192.348 28.072C192.412 29.608 192.444 31.368 192.444 33.352C192.444 37.704 191.388 42.056 189.276 46.408C187.228 50.696 184.348 54.248 180.636 57.064C176.924 59.816 172.732 61.192 168.06 61.192C160.892 61.192 155.292 58.888 151.26 54.28C147.228 49.608 144.476 43.592 143.004 36.232C142.172 32.008 141.628 27.592 141.372 22.984C141.18 18.376 141.084 12.2 141.084 4.456C141.084 3.432 141.564 2.472 142.524 1.576C143.548 0.679998 144.636 0.231998 145.788 0.231998C149.82 0.231998 151.836 1.928 151.836 5.32Z" fill="#FFC4C4"/>
</svg>
