<svg width="192" height="70" viewBox="0 0 192 62" fill="none" xmlns="http://www.w3.org/2000/svg">
<path d="M10.992 5.32C10.992 7.176 10.928 9.64 10.8 12.712L10.704 18.952C10.704 25.032 11.152 30.12 12.048 34.216C13.328 39.976 15.248 44.424 17.808 47.56C20.176 50.312 23.088 51.688 26.544 51.688C29.232 51.688 31.632 50.888 33.744 49.288C35.856 47.624 37.488 45.576 38.64 43.144C40.56 39.176 41.52 34.28 41.52 28.456C41.52 24.936 41.296 20.776 40.848 15.976C40.464 10.6 40.272 6.568 40.272 3.88C40.272 2.472 41.104 1.576 42.768 1.192C44.432 0.743996 46.16 0.519995 47.952 0.519995C48.592 0.519995 49.328 0.935995 50.16 1.768C50.992 2.6 51.408 3.496 51.408 4.456C51.408 6.376 51.312 8.2 51.12 9.928C50.992 11.848 50.928 13.192 50.928 13.96C50.928 16.392 51.056 19.784 51.312 24.136C51.376 25.224 51.44 26.536 51.504 28.072C51.568 29.608 51.6 31.368 51.6 33.352C51.6 37.704 50.544 42.056 48.432 46.408C46.384 50.696 43.504 54.248 39.792 57.064C36.08 59.816 31.888 61.192 27.216 61.192C20.048 61.192 14.448 58.888 10.416 54.28C6.384 49.608 3.632 43.592 2.16 36.232C1.328 32.008 0.784 27.592 0.528 22.984C0.336 18.376 0.24 12.2 0.24 4.456C0.24 3.432 0.720001 2.472 1.68 1.576C2.704 0.679998 3.792 0.231998 4.944 0.231998C8.976 0.231998 10.992 1.928 10.992 5.32ZM82.2323 61.96C78.2643 61.96 74.9043 60.872 72.1523 58.696C69.4643 56.52 67.4163 53.48 66.0083 49.576C64.6003 45.672 63.8963 41.16 63.8963 36.04C63.8963 29.96 64.7283 24.712 66.3923 20.296C68.0563 15.88 70.0723 12.296 72.4403 9.544H81.0803C79.4803 11.4 78.0083 13.608 76.6643 16.168C75.3843 18.664 74.3283 21.576 73.4963 24.904C72.7283 28.232 72.3443 31.976 72.3443 36.136C72.3443 42.344 73.3043 47.048 75.2243 50.248C77.1443 53.384 79.6723 54.952 82.8083 54.952C84.9203 54.952 86.6483 54.408 87.9923 53.32C89.4003 52.232 90.4243 50.76 91.0643 48.904C91.7043 46.984 92.0243 44.84 92.0243 42.472V27.016H100.088V42.472C100.088 45.096 100.44 47.368 101.144 49.288C101.912 51.144 102.968 52.552 104.312 53.512C105.656 54.472 107.288 54.952 109.208 54.952C111.384 54.952 113.24 54.248 114.776 52.84C116.376 51.432 117.592 49.32 118.424 46.504C119.32 43.688 119.768 40.232 119.768 36.136C119.768 32.104 119.416 28.488 118.712 25.288C118.008 22.024 116.984 19.112 115.64 16.552C114.36 13.928 112.824 11.592 111.032 9.544H119.672C121.4 11.528 122.904 13.832 124.184 16.456C125.464 19.016 126.456 21.928 127.16 25.192C127.864 28.456 128.216 32.072 128.216 36.04C128.216 41.16 127.512 45.672 126.104 49.576C124.696 53.48 122.616 56.52 119.864 58.696C117.176 60.872 113.848 61.96 109.88 61.96C106.36 61.96 103.48 61.16 101.24 59.56C99.0003 57.896 97.3363 55.176 96.2483 51.4H95.7683C95.1283 53.896 94.2003 55.944 92.9843 57.544C91.7683 59.08 90.2643 60.2 88.4723 60.904C86.6803 61.608 84.6003 61.96 82.2323 61.96ZM151.336 5.32C151.336 7.176 151.272 9.64 151.144 12.712L151.048 18.952C151.048 25.032 151.496 30.12 152.392 34.216C153.672 39.976 155.592 44.424 158.152 47.56C160.52 50.312 163.432 51.688 166.888 51.688C169.576 51.688 171.976 50.888 174.088 49.288C176.2 47.624 177.832 45.576 178.984 43.144C180.904 39.176 181.864 34.28 181.864 28.456C181.864 24.936 181.64 20.776 181.192 15.976C180.808 10.6 180.616 6.568 180.616 3.88C180.616 2.472 181.448 1.576 183.112 1.192C184.776 0.743996 186.504 0.519995 188.296 0.519995C188.936 0.519995 189.672 0.935995 190.504 1.768C191.336 2.6 191.752 3.496 191.752 4.456C191.752 6.376 191.656 8.2 191.464 9.928C191.336 11.848 191.272 13.192 191.272 13.96C191.272 16.392 191.4 19.784 191.656 24.136C191.72 25.224 191.784 26.536 191.848 28.072C191.912 29.608 191.944 31.368 191.944 33.352C191.944 37.704 190.888 42.056 188.776 46.408C186.728 50.696 183.848 54.248 180.136 57.064C176.424 59.816 172.232 61.192 167.56 61.192C160.392 61.192 154.792 58.888 150.76 54.28C146.728 49.608 143.976 43.592 142.504 36.232C141.672 32.008 141.128 27.592 140.872 22.984C140.68 18.376 140.584 12.2 140.584 4.456C140.584 3.432 141.064 2.472 142.024 1.576C143.048 0.679998 144.136 0.231998 145.288 0.231998C149.32 0.231998 151.336 1.928 151.336 5.32Z" fill="#FFC4C4"/>
</svg>
