<svg width="50" height="50" viewBox="0 0 50 50" fill="none" xmlns="http://www.w3.org/2000/svg">
<g clip-path="url(#clip0_10_70)">
<path d="M49.8666 12.05C49.3041 13.8188 48.5458 15.3583 47.5958 16.7563L47.6354 16.6938C46.7021 18.2493 45.5875 20.0465 44.2916 22.0854C43.1805 23.6952 42.5923 24.5285 42.5271 24.5854C42.2396 24.9458 42.0396 25.3875 41.9708 25.8729L41.9687 25.8875C42.025 26.3292 42.2291 26.7146 42.5271 27.0021L43.3604 27.9313C47.8187 32.5132 50.3264 35.6715 50.8833 37.4063C50.9562 37.5979 50.9979 37.8188 50.9979 38.05C50.9979 38.4542 50.8687 38.8271 50.65 39.1333L50.6541 39.1271C50.2875 39.5042 49.775 39.7375 49.2083 39.7375C49.1458 39.7375 49.0812 39.7354 49.0208 39.7292H49.0291H43.5479C43.5458 39.7292 43.5416 39.7292 43.5375 39.7292C42.8354 39.7292 42.1896 39.4833 41.6833 39.075L41.6896 39.0792C40.9521 38.4729 40.2958 37.8167 39.7083 37.1042L39.6896 37.0792C38.7298 35.9945 37.8784 35.0813 37.1354 34.3396C34.6604 31.9868 32.834 30.8104 31.6562 30.8104C31.6125 30.8063 31.5625 30.8042 31.5104 30.8042C31.1666 30.8042 30.8458 30.9104 30.5812 31.0917L30.5875 31.0875C30.3708 31.3583 30.2396 31.7083 30.2396 32.0854C30.2396 32.1604 30.2437 32.2313 30.2541 32.3042V32.2958C30.1979 32.95 30.1646 33.7104 30.1646 34.4792C30.1646 34.7271 30.1687 34.9729 30.175 35.2188V35.1833V37.5979C30.1958 37.6958 30.2083 37.8083 30.2083 37.9229C30.2083 38.4271 29.9791 38.8771 29.6208 39.175L29.6187 39.1771C28.8125 39.5458 27.8708 39.7625 26.8771 39.7625C26.6646 39.7625 26.4562 39.7521 26.25 39.7333L26.2771 39.7354C22.9979 39.6729 19.9562 38.7125 17.3708 37.0938L17.4437 37.1354C14.2958 35.2229 11.6875 32.7333 9.69998 29.7917L9.64373 29.7042C7.75623 27.2 5.99581 24.3708 4.49581 21.3875L4.34998 21.0667C3.47289 19.3958 2.56456 17.3417 1.78123 15.2292L1.65623 14.8438C1.33748 13.8938 1.10623 12.7896 1.01039 11.6458L1.00623 11.5938C1.00623 10.541 1.62567 10.0146 2.86456 10.0146H8.34373C8.39373 10.0104 8.45206 10.0083 8.51248 10.0083C9.02914 10.0083 9.50623 10.1854 9.88331 10.4833L9.87914 10.4792C10.2958 10.9354 10.6041 11.4958 10.7562 12.1208L10.7625 12.1458C11.7708 14.9938 12.8396 17.3854 14.0687 19.6771L13.9291 19.3917C14.9333 21.4125 16.0437 23.1521 17.3104 24.7583L17.2625 24.6938C18.3736 26.0577 19.2403 26.7396 19.8625 26.7396C19.8812 26.7417 19.9041 26.7417 19.9291 26.7417C20.2375 26.7417 20.5062 26.575 20.6521 26.325L20.6541 26.3208C20.8083 25.925 20.8979 25.4646 20.8979 24.9854C20.8979 24.8833 20.8937 24.7813 20.8854 24.6813V24.6938V16.6125C20.8416 15.6604 20.6083 14.7708 20.2187 13.9729L20.2354 14.0125C19.9771 13.4625 19.6666 12.9875 19.2979 12.5646L19.3041 12.5729C18.9625 12.2313 18.7291 11.7833 18.6562 11.2833L18.6541 11.2708C18.6541 10.9167 18.8166 10.5979 19.0708 10.3896L19.0729 10.3875C19.325 10.1563 19.6625 10.0167 20.0312 10.0167H20.0479H28.6854C28.7312 10.0104 28.7833 10.0083 28.8375 10.0083C29.2437 10.0083 29.6083 10.1917 29.85 10.4792L29.8521 10.4813C30.0666 10.8729 30.1937 11.3417 30.1937 11.8375C30.1937 11.9167 30.1896 11.9938 30.1833 12.0708V12.0604V22.8375C30.1791 22.8875 30.1771 22.9458 30.1771 23.0042C30.1771 23.3875 30.2833 23.7479 30.4666 24.0542L30.4625 24.0458C30.6146 24.2708 30.8687 24.4167 31.1562 24.4167C31.5229 24.3917 31.8583 24.2708 32.1396 24.0792L32.1333 24.0833C32.7 23.6938 33.1875 23.25 33.6104 22.7479L33.6187 22.7375C34.8833 21.3083 36.05 19.7292 37.0666 18.05L37.1479 17.9042C37.8646 16.7167 38.6396 15.2542 39.3416 13.7521L39.4708 13.4458L40.4 11.5875C40.7229 10.6583 41.5896 10.0042 42.6083 10.0042C42.6479 10.0042 42.6875 10.0042 42.7271 10.0063H42.7208H48.2021C49.6826 10.0063 50.2382 10.6875 49.8687 12.05H49.8666Z" fill="#8A5B4A"/>
</g>
<defs>
<clipPath id="clip0_10_70">
<rect width="50" height="50" fill="white"/>
</clipPath>
</defs>
</svg>
