<svg width="43" height="18" viewBox="0 0 43 18" fill="none" xmlns="http://www.w3.org/2000/svg">
<path d="M5.688 0.754C5.996 0.754 6.238 0.82 6.414 0.952C6.60467 1.084 6.7 1.25267 6.7 1.458C6.7 1.854 6.50933 2.24267 6.128 2.624C5.76133 2.99067 5.37267 3.29133 4.962 3.526C4.742 3.658 4.456 3.768 4.104 3.856C3.76667 3.944 3.51 3.988 3.334 3.988C3.026 3.988 2.872 3.84133 2.872 3.548C2.872 3.46 2.90133 3.37933 2.96 3.306C3.01867 3.23267 3.14333 3.12267 3.334 2.976C3.39267 2.91733 3.48067 2.83667 3.598 2.734C3.73 2.61667 3.85467 2.48467 3.972 2.338C4.08933 2.17667 4.20667 1.964 4.324 1.7C4.5 1.348 4.69067 1.106 4.896 0.973999C5.116 0.827333 5.38 0.754 5.688 0.754ZM8.878 8.938C8.99533 9.14333 9.09067 9.444 9.164 9.84C9.23733 10.2213 9.274 10.566 9.274 10.874C9.274 11.446 9.14933 12.26 8.9 13.316C7.888 15.164 6.392 16.088 4.412 16.088C3.67867 16.088 2.93067 15.846 2.168 15.362C1.40533 14.878 0.877333 14.3207 0.584 13.69C0.188 12.4287 -0.00999996 11.6293 -0.00999996 11.292C-0.00999996 10.7053 0.114667 10.082 0.364 9.422C0.628 8.762 0.958 8.19 1.354 7.706C1.60333 7.36867 2.05067 7.08267 2.696 6.848C3.34133 6.59867 3.928 6.474 4.456 6.474C5.48267 6.474 6.35533 6.672 7.074 7.068C7.79267 7.44933 8.394 8.07267 8.878 8.938ZM6.964 12.48C7.03733 12.2893 7.074 11.798 7.074 11.006C7.074 10.5807 6.99333 10.1627 6.832 9.752C6.68533 9.34133 6.46533 8.98933 6.172 8.696C6.14267 8.66667 6.062 8.62267 5.93 8.564C5.798 8.49067 5.61467 8.42467 5.38 8.366C5.16 8.29267 4.90333 8.256 4.61 8.256C3.78867 8.256 3.18733 8.586 2.806 9.246C2.42467 9.906 2.234 10.654 2.234 11.49C2.234 11.6367 2.27067 11.9153 2.344 12.326C2.432 12.7367 2.50533 12.9933 2.564 13.096C2.608 13.1987 2.718 13.3453 2.894 13.536C3.08467 13.712 3.312 13.8733 3.576 14.02C3.85467 14.152 4.14067 14.218 4.434 14.218C5.094 14.218 5.622 14.064 6.018 13.756C6.414 13.4333 6.72933 13.008 6.964 12.48ZM10.2578 15.384C11.0498 15.384 11.7538 15.78 12.3258 16.11C12.6338 16.286 13.3818 16.638 13.9318 16.638C14.4598 16.638 14.9658 16.44 15.5818 16.11C16.0878 15.824 16.6378 15.384 17.5838 15.384C18.5518 15.384 19.0798 15.824 19.6078 16.11C20.2238 16.44 20.7298 16.638 21.2578 16.638C21.7858 16.638 22.5558 16.286 22.8638 16.11C23.4138 15.78 24.1178 15.384 24.9098 15.384C25.7018 15.384 26.4058 15.78 26.9558 16.11C27.2638 16.286 28.0338 16.638 28.5618 16.638C29.0898 16.638 29.5958 16.44 30.2118 16.11C30.7398 15.824 31.3118 15.384 32.2578 15.384V16.638C31.4878 16.638 30.9598 16.99 30.6738 17.166C29.9478 17.562 29.3758 17.892 28.5618 17.892C27.7478 17.892 27.0218 17.43 26.5158 17.166C25.8998 16.836 25.4158 16.638 24.9098 16.638C24.4038 16.638 23.9198 16.836 23.3038 17.166C22.7978 17.452 22.0718 17.892 21.2578 17.892C20.4438 17.892 19.8718 17.562 19.1458 17.166C18.8598 16.99 18.3538 16.638 17.5838 16.638C16.8138 16.638 16.3298 16.99 16.0438 17.166C15.2958 17.562 14.7238 17.892 13.9318 17.892C13.1178 17.892 12.3698 17.43 11.8858 17.166C11.2698 16.836 10.7858 16.638 10.2578 16.638V15.384ZM36.5258 0.754C36.8338 0.754 37.0905 0.827333 37.2958 0.973999C37.5011 1.106 37.6918 1.348 37.8678 1.7C38.0145 2.008 38.1465 2.24267 38.2638 2.404C38.3958 2.55067 38.5131 2.67533 38.6158 2.778C38.7331 2.866 38.8211 2.932 38.8798 2.976C39.0558 3.12267 39.1731 3.23267 39.2318 3.306C39.2905 3.37933 39.3198 3.46 39.3198 3.548C39.3198 3.68 39.2831 3.79 39.2098 3.878C39.1365 3.95133 39.0265 3.988 38.8798 3.988C38.6891 3.988 38.4178 3.944 38.0658 3.856C37.7285 3.768 37.4498 3.658 37.2298 3.526C36.8045 3.27667 36.4085 2.96867 36.0418 2.602C35.6751 2.23533 35.4918 1.854 35.4918 1.458C35.4918 1.25267 35.5871 1.084 35.7778 0.952C35.9685 0.82 36.2178 0.754 36.5258 0.754ZM42.1358 8.938C42.2531 9.14333 42.3485 9.444 42.4218 9.84C42.4951 10.2213 42.5318 10.566 42.5318 10.874C42.5318 11.446 42.4071 12.26 42.1578 13.316C41.1458 15.164 39.6498 16.088 37.6698 16.088C36.9365 16.088 36.1885 15.846 35.4258 15.362C34.6631 14.878 34.1351 14.3207 33.8418 13.69C33.4458 12.4287 33.2478 11.6293 33.2478 11.292C33.2478 10.7053 33.3725 10.082 33.6218 9.422C33.8858 8.762 34.2158 8.19 34.6118 7.706C34.8611 7.36867 35.3085 7.08267 35.9538 6.848C36.5991 6.59867 37.1858 6.474 37.7138 6.474C38.7405 6.474 39.6131 6.672 40.3318 7.068C41.0505 7.44933 41.6518 8.07267 42.1358 8.938ZM40.2218 12.48C40.2951 12.2893 40.3318 11.798 40.3318 11.006C40.3318 10.5807 40.2511 10.1627 40.0898 9.752C39.9431 9.34133 39.7231 8.98933 39.4298 8.696C39.4005 8.66667 39.3198 8.62267 39.1878 8.564C39.0558 8.49067 38.8725 8.42467 38.6378 8.366C38.4178 8.29267 38.1611 8.256 37.8678 8.256C37.0465 8.256 36.4451 8.586 36.0638 9.246C35.6825 9.906 35.4918 10.654 35.4918 11.49C35.4918 11.6367 35.5285 11.9153 35.6018 12.326C35.6898 12.7367 35.7631 12.9933 35.8218 13.096C35.8658 13.1987 35.9758 13.3453 36.1518 13.536C36.3425 13.712 36.5698 13.8733 36.8338 14.02C37.1125 14.152 37.3985 14.218 37.6918 14.218C38.3518 14.218 38.8798 14.064 39.2758 13.756C39.6718 13.4333 39.9871 13.008 40.2218 12.48Z" fill="#8A5B4A"/>
</svg>
