<svg width="41" height="12" viewBox="0 0 41 12" fill="none" xmlns="http://www.w3.org/2000/svg">
<path d="M5.63741 6.474C6.57607 6.474 7.26541 6.65733 7.70541 7.024C8.16007 7.39067 8.38741 7.89667 8.38741 8.542C8.38741 8.982 8.28474 9.41467 8.07941 9.84C7.88874 10.2653 7.61007 10.6173 7.24341 10.896C6.89141 11.1747 6.48807 11.314 6.03341 11.314C5.09474 11.314 4.40541 11.072 3.96541 10.588C3.54007 10.104 3.32741 9.51 3.32741 8.806C3.32741 8.20467 3.52541 7.66933 3.92141 7.2C4.31741 6.716 4.88941 6.474 5.63741 6.474ZM1.7532 0.754C2.0612 0.754 2.31787 0.827333 2.5232 0.973999C2.72854 1.106 2.9192 1.348 3.0952 1.7C3.24187 2.008 3.3812 2.24267 3.5132 2.404C3.63054 2.55067 3.74787 2.67533 3.8652 2.778C3.96787 2.866 4.04854 2.932 4.1072 2.976C4.2832 3.12267 4.40054 3.23267 4.4592 3.306C4.51787 3.37933 4.5472 3.46 4.5472 3.548C4.5472 3.68 4.51054 3.79 4.4372 3.878C4.36387 3.95133 4.25387 3.988 4.1072 3.988C3.91654 3.988 3.65254 3.944 3.3152 3.856C2.9632 3.768 2.6772 3.658 2.4572 3.526C2.03187 3.27667 1.63587 2.96867 1.2692 2.602C0.902536 2.23533 0.719202 1.854 0.719202 1.458C0.719202 1.25267 0.814536 1.084 1.0052 0.952C1.19587 0.82 1.4452 0.754 1.7532 0.754ZM21.7206 4.032C22.9526 4.032 23.9866 4.28133 24.8226 4.78C25.6586 5.27867 26.2893 5.98267 26.7146 6.892C27.1546 7.80133 27.3746 8.86467 27.3746 10.082H25.3286C25.3286 9.14333 25.1966 8.344 24.9326 7.684C24.6833 7.024 24.2946 6.518 23.7666 6.166C23.2386 5.79933 22.5566 5.616 21.7206 5.616C20.4739 5.616 19.5499 6.012 18.9486 6.804C18.3619 7.596 18.0686 8.68867 18.0686 10.082H16.0226C16.0226 8.86467 16.2279 7.80867 16.6386 6.914C17.0639 6.00467 17.6946 5.30067 18.5306 4.802C19.3813 4.28867 20.4446 4.032 21.7206 4.032ZM37.3054 6.474C38.244 6.474 38.9334 6.65733 39.3734 7.024C39.828 7.39067 40.0554 7.89667 40.0554 8.542C40.0554 8.982 39.9527 9.41467 39.7474 9.84C39.5567 10.2653 39.278 10.6173 38.9114 10.896C38.5594 11.1747 38.156 11.314 37.7014 11.314C36.7627 11.314 36.0734 11.072 35.6334 10.588C35.208 10.104 34.9954 9.51 34.9954 8.806C34.9954 8.20467 35.1934 7.66933 35.5894 7.2C35.9854 6.716 36.5574 6.474 37.3054 6.474ZM36.9632 0.754C37.2712 0.754 37.5205 0.82 37.7112 0.952C37.8872 1.084 37.9752 1.25267 37.9752 1.458C37.9752 1.854 37.7918 2.24267 37.4252 2.624C37.0438 2.99067 36.6478 3.29133 36.2372 3.526C36.0172 3.658 35.7385 3.768 35.4012 3.856C35.0492 3.944 34.7852 3.988 34.6092 3.988C34.3012 3.988 34.1472 3.84133 34.1472 3.548C34.1472 3.46 34.1765 3.37933 34.2352 3.306C34.2938 3.23267 34.4185 3.12267 34.6092 2.976C34.6678 2.91733 34.7632 2.83667 34.8952 2.734C35.0125 2.61667 35.1298 2.48467 35.2472 2.338C35.3645 2.17667 35.4818 1.964 35.5992 1.7C35.7752 1.348 35.9732 1.106 36.1932 0.973999C36.3985 0.827333 36.6552 0.754 36.9632 0.754Z" fill="#8A5B4A"/>
</svg>
