<svg width="27" height="16" viewBox="0 0 27 16" fill="none" xmlns="http://www.w3.org/2000/svg">
<path d="M2.696 0.473999C3.63467 0.473999 4.324 0.657333 4.764 1.024C5.21867 1.39067 5.446 1.89667 5.446 2.542C5.446 2.982 5.34333 3.41467 5.138 3.84C4.94733 4.26533 4.66867 4.61733 4.302 4.896C3.95 5.17467 3.54667 5.314 3.092 5.314C2.15333 5.314 1.464 5.072 1.024 4.588C0.598667 4.104 0.386 3.51 0.386 2.806C0.386 2.20467 0.584 1.66933 0.98 1.2C1.376 0.716 1.948 0.473999 2.696 0.473999ZM8.2498 10.66C8.63113 11.4373 9.09313 12.0827 9.6358 12.596C10.1931 13.124 10.8018 13.5127 11.4618 13.762C12.1365 14.0113 12.8331 14.136 13.5518 14.136C14.2558 14.136 14.9378 14.0113 15.5978 13.762C16.2578 13.5127 16.8665 13.124 17.4238 12.596C17.9811 12.0827 18.4431 11.4373 18.8098 10.66L19.7338 11.144C19.2645 12.068 18.7218 12.8307 18.1058 13.432C17.5045 14.048 16.8225 14.51 16.0598 14.818C15.3118 15.126 14.4758 15.28 13.5518 15.28C12.6425 15.28 11.8065 15.126 11.0438 14.818C10.2958 14.51 9.6138 14.048 8.9978 13.432C8.3818 12.8307 7.8318 12.068 7.3478 11.144L8.2498 10.66ZM23.944 0.473999C24.8827 0.473999 25.572 0.657333 26.012 1.024C26.4667 1.39067 26.694 1.89667 26.694 2.542C26.694 2.982 26.5914 3.41467 26.386 3.84C26.1954 4.26533 25.9167 4.61733 25.55 4.896C25.198 5.17467 24.7947 5.314 24.34 5.314C23.4014 5.314 22.712 5.072 22.272 4.588C21.8467 4.104 21.634 3.51 21.634 2.806C21.634 2.20467 21.832 1.66933 22.228 1.2C22.624 0.716 23.196 0.473999 23.944 0.473999Z" fill="#8A5B4A"/>
</svg>
