<svg width="28" height="12" viewBox="0 0 28 12" fill="none" xmlns="http://www.w3.org/2000/svg">
<path d="M3.032 0.607999C4.056 0.607999 4.808 0.807999 5.288 1.208C5.784 1.608 6.032 2.16 6.032 2.864C6.032 3.344 5.92 3.816 5.696 4.28C5.488 4.744 5.184 5.128 4.784 5.432C4.4 5.736 3.96 5.888 3.464 5.888C2.44 5.888 1.688 5.624 1.208 5.096C0.744 4.568 0.512 3.92 0.512 3.152C0.512 2.496 0.728 1.912 1.16 1.4C1.592 0.872 2.216 0.607999 3.032 0.607999ZM7.55469 11.12L7.79469 9.152C8.75469 9.152 9.65869 9.064 10.5067 8.888C11.3547 8.696 12.1307 8.448 12.8347 8.144C13.5547 7.824 14.1707 7.464 14.6827 7.064C15.1947 6.648 15.5867 6.224 15.8587 5.792C16.1467 5.344 16.2907 4.904 16.2907 4.472C16.2907 4.264 16.2187 4.056 16.0747 3.848C15.9307 3.624 15.6827 3.44 15.3307 3.296C14.9947 3.152 14.5387 3.08 13.9627 3.08C13.6107 3.08 13.2187 3.128 12.7867 3.224C12.3547 3.32 11.9387 3.456 11.5387 3.632C11.1547 3.792 10.8347 3.976 10.5787 4.184C11.0107 4.536 11.4107 4.88 11.7787 5.216C12.1627 5.552 12.5547 5.92 12.9547 6.32C13.3547 6.704 13.7867 7.144 14.2507 7.64C14.6187 7.912 15.0267 8.144 15.4747 8.336C15.9387 8.528 16.4347 8.688 16.9627 8.816C17.5067 8.928 18.0587 9.016 18.6187 9.08C19.1787 9.128 19.7387 9.152 20.2987 9.152C20.6347 9.152 20.8747 9.248 21.0187 9.44C21.1787 9.616 21.2587 9.832 21.2587 10.088C21.2587 10.344 21.1467 10.584 20.9227 10.808C20.6987 11.016 20.4107 11.12 20.0587 11.12C19.1787 11.12 18.2747 11.04 17.3467 10.88C16.4347 10.704 15.5787 10.448 14.7787 10.112C13.9787 9.76 13.2987 9.32 12.7387 8.792C12.4667 8.44 12.1627 8.088 11.8267 7.736C11.4907 7.384 11.1227 7.032 10.7227 6.68C10.3387 6.312 9.92269 5.968 9.47469 5.648C9.37869 5.568 9.28269 5.424 9.18669 5.216C9.09069 5.008 9.01069 4.792 8.94669 4.568C8.88269 4.344 8.85069 4.176 8.85069 4.064C8.85069 3.824 9.00269 3.536 9.30669 3.2C9.61069 2.864 10.0187 2.544 10.5307 2.24C11.0427 1.92 11.6267 1.656 12.2827 1.448C12.9387 1.24 13.6187 1.136 14.3227 1.136C15.2347 1.136 15.9707 1.272 16.5307 1.544C17.1067 1.816 17.5227 2.168 17.7787 2.6C18.0507 3.016 18.1867 3.464 18.1867 3.944C18.1867 4.648 18.0107 5.352 17.6587 6.056C17.3067 6.744 16.8027 7.392 16.1467 8C15.4907 8.608 14.7227 9.152 13.8427 9.632C12.9627 10.096 11.9867 10.464 10.9147 10.736C9.85869 10.992 8.73869 11.12 7.55469 11.12ZM24.1023 0.607999C25.1263 0.607999 25.8783 0.807999 26.3583 1.208C26.8543 1.608 27.1023 2.16 27.1023 2.864C27.1023 3.344 26.9903 3.816 26.7663 4.28C26.5583 4.744 26.2543 5.128 25.8543 5.432C25.4703 5.736 25.0303 5.888 24.5343 5.888C23.5103 5.888 22.7583 5.624 22.2783 5.096C21.8143 4.568 21.5823 3.92 21.5823 3.152C21.5823 2.496 21.7983 1.912 22.2303 1.4C22.6623 0.872 23.2863 0.607999 24.1023 0.607999Z" fill="#8A5B4A"/>
</svg>
