<svg width="107" height="32" viewBox="0 0 107 32" fill="none" xmlns="http://www.w3.org/2000/svg">
<path d="M4.74325 19.048C4.23125 19.56 3.67125 19.816 3.06325 19.816C2.51925 19.816 1.95925 19.656 1.38325 19.336C0.80725 19.016 0.51925 18.728 0.51925 18.472C0.51925 18.056 0.80725 17.208 1.38325 15.928C1.95925 14.616 2.79125 12.856 3.87925 10.648C5.15925 8.024 6.05525 6.104 6.56725 4.888C7.01525 3.768 7.63925 2.712 8.43925 1.72C9.27125 0.695999 10.2153 0.183999 11.2713 0.183999C11.9113 0.183999 12.5833 0.439999 13.2873 0.951998C13.6073 1.176 14.4393 2.232 15.7833 4.12C17.1273 5.976 18.0873 7.352 18.6633 8.248C19.3033 9.176 19.8473 10.184 20.2953 11.272C20.7433 12.328 21.2873 13.368 21.9273 14.392C22.1833 14.744 22.4233 15.064 22.6473 15.352C23.4153 16.248 23.7993 17 23.7993 17.608C23.7993 18.216 23.5273 18.712 22.9833 19.096C22.4393 19.48 21.8313 19.672 21.1593 19.672C20.6153 19.672 20.0873 19.448 19.5753 19C19.0633 18.52 18.5833 17.96 18.1353 17.32C17.7193 16.648 17.3673 16.072 17.0793 15.592C16.4713 14.536 15.8313 13.336 15.1593 11.992C14.4873 10.68 13.8953 9.576 13.3833 8.68C12.9033 7.784 12.3273 6.872 11.6553 5.944C11.1113 6.424 10.3753 7.432 9.44725 8.968C8.51925 10.504 7.92725 11.576 7.67125 12.184C7.44725 12.632 7.06325 13.608 6.51925 15.112C5.94325 16.936 5.35125 18.248 4.74325 19.048ZM33.3453 10.216C35.3933 10.216 36.8973 10.616 37.8573 11.416C38.8493 12.216 39.3453 13.32 39.3453 14.728C39.3453 15.688 39.1213 16.632 38.6733 17.56C38.2573 18.488 37.6493 19.256 36.8493 19.864C36.0813 20.472 35.2013 20.776 34.2093 20.776C32.1613 20.776 30.6573 20.248 29.6973 19.192C28.7693 18.136 28.3053 16.84 28.3053 15.304C28.3053 13.992 28.7373 12.824 29.6013 11.8C30.4653 10.744 31.7133 10.216 33.3453 10.216ZM56.0706 18.664C56.1666 18.408 56.5026 17.48 57.0786 15.88C57.6866 14.28 58.2466 13.064 58.7586 12.232C59.5906 10.92 60.3266 10.264 60.9666 10.264C61.8626 10.264 62.5506 10.44 63.0306 10.792C63.5106 11.112 63.7506 11.576 63.7506 12.184C63.7506 12.472 63.6226 12.872 63.3666 13.384C63.1426 13.896 63.0146 14.2 62.9826 14.296C61.7026 17.112 60.5506 20.136 59.5266 23.368L58.5186 27.112C58.1346 28.328 57.4786 29.32 56.5506 30.088C55.6226 30.824 54.5346 31.192 53.2866 31.192C52.1666 31.192 51.1266 30.68 50.1666 29.656C49.5906 28.76 48.9826 27.624 48.3426 26.248C47.7346 24.872 47.2066 23.528 46.7586 22.216L45.0786 17.176C44.7266 16.184 44.4386 15.336 44.2146 14.632C44.0226 13.928 43.9266 13.288 43.9266 12.712C43.8946 12.04 44.0866 11.496 44.5026 11.08C44.9186 10.664 45.4946 10.456 46.2306 10.456C47.0626 10.456 47.6546 10.632 48.0066 10.984C48.3586 11.304 48.6786 11.816 48.9666 12.52C49.0946 13.256 49.4466 14.76 50.0226 17.032L50.3586 18.376C50.6466 19.464 51.0146 20.568 51.4626 21.688C51.9106 22.808 52.3586 23.88 52.8066 24.904C52.7426 24.744 52.9666 25.272 53.4786 26.488C53.7986 25.56 54.1666 24.424 54.5826 23.08L56.0706 18.664ZM72.6734 10.216C74.7214 10.216 76.2254 10.616 77.1854 11.416C78.1774 12.216 78.6734 13.32 78.6734 14.728C78.6734 15.688 78.4494 16.632 78.0014 17.56C77.5854 18.488 76.9774 19.256 76.1774 19.864C75.4094 20.472 74.5294 20.776 73.5374 20.776C71.4894 20.776 69.9854 20.248 69.0254 19.192C68.0974 18.136 67.6334 16.84 67.6334 15.304C67.6334 13.992 68.0654 12.824 68.9294 11.8C69.7934 10.744 71.0414 10.216 72.6734 10.216ZM87.4308 19.048C86.9188 19.56 86.3588 19.816 85.7508 19.816C85.2068 19.816 84.6468 19.656 84.0708 19.336C83.4948 19.016 83.2068 18.728 83.2068 18.472C83.2068 18.056 83.4948 17.208 84.0708 15.928C84.6468 14.616 85.4788 12.856 86.5668 10.648C87.8468 8.024 88.7428 6.104 89.2548 4.888C89.7028 3.768 90.3268 2.712 91.1268 1.72C91.9588 0.695999 92.9028 0.183999 93.9588 0.183999C94.5988 0.183999 95.2708 0.439999 95.9748 0.951998C96.2948 1.176 97.1268 2.232 98.4708 4.12C99.8148 5.976 100.775 7.352 101.351 8.248C101.991 9.176 102.535 10.184 102.983 11.272C103.431 12.328 103.975 13.368 104.615 14.392C104.871 14.744 105.111 15.064 105.335 15.352C106.103 16.248 106.487 17 106.487 17.608C106.487 18.216 106.215 18.712 105.671 19.096C105.127 19.48 104.519 19.672 103.847 19.672C103.303 19.672 102.775 19.448 102.263 19C101.751 18.52 101.271 17.96 100.823 17.32C100.407 16.648 100.055 16.072 99.7668 15.592C99.1588 14.536 98.5188 13.336 97.8468 11.992C97.1748 10.68 96.5828 9.576 96.0708 8.68C95.5908 7.784 95.0148 6.872 94.3428 5.944C93.7988 6.424 93.0628 7.432 92.1348 8.968C91.2068 10.504 90.6148 11.576 90.3588 12.184C90.1348 12.632 89.7508 13.608 89.2068 15.112C88.6308 16.936 88.0388 18.248 87.4308 19.048Z" fill="white"/>
</svg>
