<svg width="40" height="40" viewBox="0 0 40 40" fill="none" xmlns="http://www.w3.org/2000/svg">
<path d="M30.1548 20.1865C29.707 18.6094 30.2316 16.6453 31.7159 16.1149C32.4965 15.8281 33.4562 16.0719 34.0064 16.9177C34.5182 16.0432 35.5163 15.8425 36.2841 16.1149C37.7684 16.6453 38.293 18.6094 37.8452 20.1865C37.1414 22.6954 34.6846 24 34.0064 24C33.3154 24 30.8842 22.724 30.1548 20.1865Z" fill="#8A5B4A" stroke="#8A5B4A" stroke-width="0.5" stroke-linecap="round" stroke-linejoin="round"/>
<path d="M1.15484 20.1865C0.706988 18.6094 1.23162 16.6453 2.71594 16.1149C3.49649 15.8281 4.45618 16.0719 5.0064 16.9177C5.51823 16.0432 6.51631 15.8425 7.28406 16.1149C8.76838 16.6453 9.29301 18.6094 8.84516 20.1865C8.14138 22.6954 5.68458 24 5.0064 24C4.31542 24 1.88421 22.724 1.15484 20.1865Z" fill="#8A5B4A" stroke="#8A5B4A" stroke-width="0.5" stroke-linecap="round" stroke-linejoin="round"/>
<path d="M16.1548 20.1865C15.707 18.6094 16.2316 16.6453 17.7159 16.1149C18.4965 15.8281 19.4562 16.0719 20.0064 16.9177C20.5182 16.0432 21.5163 15.8425 22.2841 16.1149C23.7684 16.6453 24.293 18.6094 23.8452 20.1865C23.1414 22.6954 20.6846 24 20.0064 24C19.3154 24 16.8842 22.724 16.1548 20.1865Z" fill="#8A5B4A" stroke="#8A5B4A" stroke-width="0.5" stroke-linecap="round" stroke-linejoin="round"/>
</svg>
