<svg width="40" height="40" viewBox="0 0 40 40" fill="none" xmlns="http://www.w3.org/2000/svg">
<g id="search-svgrepo-com 1">
<path id="Vector" d="M21.6668 30.0001C15.2235 30.0001 10.0002 24.7767 10.0002 18.3334C10.0002 11.8901 15.2235 6.66675 21.6668 6.66675C28.1102 6.66675 33.3335 11.8901 33.3335 18.3334C33.3335 24.7767 28.1102 30.0001 21.6668 30.0001Z" stroke="#8A5B4A" stroke-width="3"/>
<path id="Vector_2" d="M6.6665 33.3333L11.6665 28.3333" stroke="#8A5B4A" stroke-width="3" stroke-linecap="round"/>
<path id="Vector_3" d="M17.1936 18.2331C16.6337 16.2618 17.2895 13.8066 19.1449 13.1436C20.1206 12.7852 21.3202 13.0898 22.008 14.1471C22.6478 13.054 23.8954 12.8031 24.8551 13.1436C26.7105 13.8066 27.3663 16.2618 26.8064 18.2331C25.9267 21.3692 22.8557 23 22.008 23C21.1443 23 18.1053 21.4051 17.1936 18.2331Z" fill="#8A5B4A"/>
</g>
</svg>
