<svg width="36" height="35" viewBox="0 0 36 35" fill="none" xmlns="http://www.w3.org/2000/svg">
<path id="Vector" d="M32.8165 21.3713L32.8181 21.3706C33.5402 21.059 34.1554 20.5425 34.5875 19.8848C35.0197 19.2272 35.25 18.4572 35.25 17.6701C35.25 16.8829 35.0197 16.113 34.5875 15.4553L34.3786 15.5926L34.5875 15.4553C34.1721 14.8232 33.5877 14.3215 32.9017 14.0067C32.8667 13.9571 32.8186 13.9176 32.762 13.8931L32.6627 14.1226L32.7619 13.8931L2.36927 0.752051C1.33771 0.306029 0.287413 1.34184 0.71906 2.37949L6.45064 16.1579C6.45077 16.1582 6.4509 16.1585 6.45102 16.1588C6.80368 17.0268 6.80368 17.9984 6.45102 18.8664C6.45089 18.8667 6.45077 18.867 6.45064 18.8673L0.711044 32.6433C0.280422 33.6769 1.32143 34.7118 2.35244 34.2751L32.8165 21.3713ZM31.5895 18.5423L31.5891 18.5425L6.8644 29.0721C6.24602 29.3354 5.62009 28.715 5.87791 28.0943L9.2276 20.0299C9.22777 20.0295 9.22795 20.0291 9.22812 20.0287C9.28063 19.9058 9.32886 19.7812 9.37274 19.6551C9.50317 19.2805 9.82544 19.0225 10.1793 19.0225H21.488C22.1784 19.0225 22.738 18.4629 22.738 17.7725V17.2527C22.738 16.5623 22.1784 16.0027 21.488 16.0027H10.1793C9.82544 16.0027 9.50317 15.7447 9.37274 15.3701C9.32884 15.244 9.2806 15.1193 9.22807 14.9964C9.22791 14.996 9.22776 14.9957 9.2276 14.9953L5.88769 6.97403C5.62852 6.35159 6.25834 5.72991 6.87735 5.99717L31.5996 16.6708C31.5999 16.6709 31.6001 16.671 31.6004 16.6711C31.7804 16.75 31.9335 16.8798 32.0409 17.0446C32.1485 17.2097 32.2054 17.4028 32.2047 17.5999L32.2048 17.6031C32.2066 17.8031 32.1491 17.9991 32.0395 18.1663C31.93 18.3336 31.7733 18.4644 31.5895 18.5423Z" fill="#8A5B4A" stroke="#8A5B4A" stroke-width="0.5"/>
</svg>
