<svg width="35" height="35" viewBox="0 0 35 35" fill="none" xmlns="http://www.w3.org/2000/svg">
<path id="Vector" d="M8.508 19.8381L22.1887 5.8465C22.3356 5.69619 23.5083 4.49691 25.3642 3.8477C27.9533 2.9986 30.5925 3.69739 32.6939 5.8465C34.8437 7.99561 35.4785 10.6436 34.6483 13.2916C34.0619 15.1913 32.8409 16.4897 32.6939 16.64L17.9875 31.6806C15.4468 34.2791 9.09431 37.6275 3.23116 31.6806C-2.58352 25.7338 0.738933 19.1873 3.23116 16.64L19.0132 0.449731C19.5995 -0.14991 20.5282 -0.14991 21.1145 0.449731C21.7009 1.04937 21.7009 1.9992 21.1145 2.59884L5.38098 18.7891C5.13708 18.989 0.201087 24.2355 5.38098 29.5331C10.4139 34.6804 15.3483 30.0832 15.8862 29.5331L30.5925 14.4414C30.5925 14.4414 31.4228 13.5923 31.8136 12.393C32.303 10.7939 31.9606 9.39477 30.5925 7.99561C27.661 4.99741 24.8263 7.49511 24.29 7.99561L10.6094 21.9377C10.12 22.4382 9.77913 23.2873 10.6094 24.1363C11.4396 24.9854 12.2213 24.5857 12.7107 24.1363L22.1902 14.4414C22.7766 13.8913 23.7537 13.8913 24.2916 14.4414C24.8779 15.041 24.8779 16.0404 24.2916 16.64L14.8121 26.2839C13.4925 27.5839 10.8048 28.6329 8.50956 26.2839C6.1643 23.9349 7.1884 21.1365 8.508 19.8381Z" fill="#8A5B4A"/>
</svg>
