<svg width="81" height="22" viewBox="0 0 81 22" fill="none" xmlns="http://www.w3.org/2000/svg">
<path d="M5.16797 0.159999C5.53597 0.159999 5.83997 0.239999 6.07997 0.399999C6.31997 0.559999 6.43997 0.767999 6.43997 1.024C6.43997 1.216 6.19997 1.536 5.71997 1.984C5.43197 2.272 5.28797 2.416 5.28797 2.416C4.61597 3.184 4.03997 4.376 3.55997 5.992C3.09597 7.592 2.86397 9.2 2.86397 10.816C2.86397 12.608 3.06397 14.072 3.46397 15.208C4.07197 16.872 4.60797 17.968 5.07197 18.496C5.15197 18.592 5.25597 18.696 5.38397 18.808C5.51197 18.936 5.61597 19.04 5.69597 19.12C5.99997 19.392 6.23197 19.632 6.39197 19.84C6.56797 20.048 6.65597 20.248 6.65597 20.44C6.65597 20.616 6.57597 20.784 6.41597 20.944C6.27197 21.12 6.11997 21.208 5.95997 21.208C5.54397 21.208 5.04797 21.032 4.47197 20.68C3.89597 20.328 3.47997 19.984 3.22397 19.648C2.39197 18.624 1.73597 17.296 1.25597 15.664C0.791969 14.032 0.559969 12.208 0.559969 10.192C0.559969 9.232 0.671969 8.224 0.895969 7.168C1.11997 6.112 1.40797 5.136 1.75997 4.24C1.93597 3.76 2.21597 3.2 2.59997 2.56C2.99997 1.904 3.43197 1.344 3.89597 0.879999C4.35997 0.399999 4.78397 0.159999 5.16797 0.159999ZM21.9627 5.656C21.8347 5.864 21.6507 6.128 21.4107 6.448C21.1707 6.768 20.8907 7.104 20.5707 7.456C20.2667 7.808 19.9547 8.144 19.6347 8.464C19.3307 8.768 19.0427 9.032 18.7707 9.256H17.5707V8.968C17.7947 8.664 18.0347 8.304 18.2907 7.888C18.5467 7.472 18.7947 7.048 19.0347 6.616C19.2907 6.168 19.4987 5.768 19.6587 5.416H21.9627V5.656ZM17.7387 5.656C17.6107 5.864 17.4267 6.128 17.1867 6.448C16.9467 6.768 16.6667 7.104 16.3467 7.456C16.0427 7.808 15.7307 8.144 15.4107 8.464C15.1067 8.768 14.8187 9.032 14.5467 9.256H13.3467V8.968C13.5707 8.664 13.8107 8.304 14.0667 7.888C14.3227 7.472 14.5707 7.048 14.8107 6.616C15.0507 6.168 15.2587 5.768 15.4347 5.416H17.7387V5.656ZM25.7896 10.024C25.5336 10.28 25.2536 10.408 24.9496 10.408C24.6776 10.408 24.3976 10.328 24.1096 10.168C23.8216 10.008 23.6776 9.864 23.6776 9.736C23.6776 9.528 23.8216 9.104 24.1096 8.464C24.3976 7.808 24.8136 6.928 25.3576 5.824C25.9976 4.512 26.4456 3.552 26.7016 2.944C26.9256 2.384 27.2376 1.856 27.6376 1.36C28.0536 0.848 28.5256 0.592 29.0536 0.592C29.3736 0.592 29.7096 0.719999 30.0616 0.975999C30.2216 1.088 30.6376 1.616 31.3096 2.56C31.9816 3.488 32.4616 4.176 32.7496 4.624C33.0696 5.088 33.3416 5.592 33.5656 6.136C33.7896 6.664 34.0616 7.184 34.3816 7.696C34.5096 7.872 34.6296 8.032 34.7416 8.176C35.1256 8.624 35.3176 9 35.3176 9.304C35.3176 9.608 35.1816 9.856 34.9096 10.048C34.6376 10.24 34.3336 10.336 33.9976 10.336C33.7256 10.336 33.4616 10.224 33.2056 10C32.9496 9.76 32.7096 9.48 32.4856 9.16C32.2776 8.824 32.1016 8.536 31.9576 8.296C31.6536 7.768 31.3336 7.168 30.9976 6.496C30.6616 5.84 30.3656 5.288 30.1096 4.84C29.8696 4.392 29.5816 3.936 29.2456 3.472C28.9736 3.712 28.6056 4.216 28.1416 4.984C27.6776 5.752 27.3816 6.288 27.2536 6.592C27.1416 6.816 26.9496 7.304 26.6776 8.056C26.3896 8.968 26.0936 9.624 25.7896 10.024ZM40.4986 11.824L36.9226 4.696H44.0506L40.4986 11.824ZM47.7974 10.024C47.5414 10.28 47.2614 10.408 46.9574 10.408C46.6854 10.408 46.4054 10.328 46.1174 10.168C45.8294 10.008 45.6854 9.864 45.6854 9.736C45.6854 9.528 45.8294 9.104 46.1174 8.464C46.4054 7.808 46.8214 6.928 47.3654 5.824C48.0054 4.512 48.4534 3.552 48.7094 2.944C48.9334 2.384 49.2454 1.856 49.6454 1.36C50.0614 0.848 50.5334 0.592 51.0614 0.592C51.3814 0.592 51.7174 0.719999 52.0694 0.975999C52.2294 1.088 52.6454 1.616 53.3174 2.56C53.9894 3.488 54.4694 4.176 54.7574 4.624C55.0774 5.088 55.3494 5.592 55.5734 6.136C55.7974 6.664 56.0694 7.184 56.3894 7.696C56.5174 7.872 56.6374 8.032 56.7494 8.176C57.1334 8.624 57.3254 9 57.3254 9.304C57.3254 9.608 57.1894 9.856 56.9174 10.048C56.6454 10.24 56.3414 10.336 56.0054 10.336C55.7334 10.336 55.4694 10.224 55.2134 10C54.9574 9.76 54.7174 9.48 54.4934 9.16C54.2854 8.824 54.1094 8.536 53.9654 8.296C53.6614 7.768 53.3414 7.168 53.0054 6.496C52.6694 5.84 52.3734 5.288 52.1174 4.84C51.8774 4.392 51.5894 3.936 51.2534 3.472C50.9814 3.712 50.6134 4.216 50.1494 4.984C49.6854 5.752 49.3894 6.288 49.2614 6.592C49.1494 6.816 48.9574 7.304 48.6854 8.056C48.3974 8.968 48.1014 9.624 47.7974 10.024ZM67.6424 5.656C67.5144 5.864 67.3304 6.128 67.0904 6.448C66.8504 6.768 66.5704 7.104 66.2504 7.456C65.9464 7.808 65.6344 8.144 65.3144 8.464C65.0104 8.768 64.7224 9.032 64.4504 9.256H63.2504V8.968C63.4744 8.664 63.7144 8.304 63.9704 7.888C64.2264 7.472 64.4744 7.048 64.7144 6.616C64.9704 6.168 65.1784 5.768 65.3384 5.416H67.6424V5.656ZM63.4184 5.656C63.2904 5.864 63.1064 6.128 62.8664 6.448C62.6264 6.768 62.3464 7.104 62.0264 7.456C61.7224 7.808 61.4104 8.144 61.0904 8.464C60.7864 8.768 60.4984 9.032 60.2264 9.256H59.0264V8.968C59.2504 8.664 59.4904 8.304 59.7464 7.888C60.0024 7.472 60.2504 7.048 60.4904 6.616C60.7304 6.168 60.9384 5.768 61.1144 5.416H63.4184V5.656ZM75.8279 0.159999C76.2279 0.159999 76.6519 0.383999 77.0999 0.831999C77.5639 1.264 77.9879 1.792 78.3719 2.416C78.7719 3.024 79.0599 3.56 79.2359 4.024C79.5719 4.888 79.8519 5.888 80.0759 7.024C80.2999 8.144 80.4119 9.2 80.4119 10.192C80.4119 12.224 80.1799 14.056 79.7159 15.688C79.2519 17.304 78.6039 18.624 77.7719 19.648C77.5159 19.984 77.0999 20.328 76.5239 20.68C75.9479 21.032 75.4519 21.208 75.0359 21.208C74.8599 21.208 74.6919 21.12 74.5319 20.944C74.3879 20.784 74.3159 20.616 74.3159 20.44C74.3159 20.248 74.3959 20.048 74.5559 19.84C74.7319 19.648 74.9799 19.408 75.2999 19.12C75.7159 18.704 75.9239 18.496 75.9239 18.496C76.3879 17.968 76.9239 16.872 77.5319 15.208C77.9319 14.072 78.1319 12.608 78.1319 10.816C78.1319 9.2 77.8919 7.568 77.4119 5.92C76.9479 4.256 76.3799 3.048 75.7079 2.296L75.2279 1.864C74.7639 1.464 74.5319 1.176 74.5319 1C74.5319 0.728 74.6519 0.52 74.8919 0.375999C75.1319 0.231999 75.4439 0.159999 75.8279 0.159999Z" fill="white"/>
</svg>
