<svg width="50" height="50" viewBox="0 0 50 50" fill="none" xmlns="http://www.w3.org/2000/svg">
<g clip-path="url(#clip0_76_136)">
<path d="M25.7204 26.956C24.803 26.364 23.8275 25.859 22.8053 25.4524C25.256 23.5519 26.8396 20.556 26.8396 17.1923C26.8396 11.4645 22.2473 6.8 16.5959 6.8C10.9445 6.8 6.35214 11.4645 6.35214 17.1923C6.35214 20.556 7.93573 23.5519 10.3864 25.4524C5.02616 27.5839 0.939341 32.407 -0.136993 38.4451L-0.137 38.4452C-0.348071 39.6306 -0.0236876 40.8399 0.751764 41.7623L0.751806 41.7624C1.52007 42.6757 2.64177 43.2 3.82921 43.2H29.3625C30.5499 43.2 31.6716 42.6757 32.4399 41.7624L32.2869 41.6337L32.4399 41.7624C33.2158 40.8399 33.5398 39.6305 33.3287 38.4452C33.2096 37.7762 33.0531 37.1225 32.8625 36.4857H46.7045C47.7351 36.4857 48.7088 36.0306 49.3752 35.2386L49.2222 35.1098L49.3753 35.2385C50.0474 34.4395 50.3283 33.3914 50.1454 32.3645C49.3277 27.7761 46.3242 24.0692 42.3391 22.2665C44.0491 20.7235 45.128 18.4758 45.128 15.9783C45.128 11.3382 41.4049 7.55861 36.8222 7.55861C32.2394 7.55861 28.5163 11.3378 28.5163 15.9783C28.5163 18.4774 29.5963 20.726 31.3082 22.2693C30.7268 22.5324 30.1617 22.8372 29.6184 23.1842L29.726 23.3528L29.6184 23.1842C28.0777 24.1686 26.7548 25.4539 25.7204 26.956ZM29.8886 39.6299L29.8885 39.6299C29.8062 39.7278 29.6342 39.8811 29.3625 39.8811H3.82921C3.55778 39.8811 3.38584 39.728 3.30337 39.6302C3.21881 39.5295 3.08902 39.321 3.1415 39.0252C4.32359 32.3936 9.98381 27.5845 16.5959 27.5845C23.208 27.5845 28.8686 32.3937 30.0502 39.0254L30.0502 39.0254C30.103 39.3211 29.9733 39.5294 29.8886 39.6299ZM46.8241 33.1059L46.8239 33.1061C46.7997 33.1349 46.76 33.1668 46.7049 33.1668H31.4795C30.638 31.6217 29.5734 30.2288 28.3319 29.0286C30.2154 26.143 33.3685 24.3977 36.8222 24.3977C41.7575 24.3977 45.9835 27.9893 46.8669 32.9449C46.8809 33.0239 46.8474 33.0783 46.8241 33.1059ZM31.846 15.9783C31.846 13.1612 34.0829 10.8775 36.8222 10.8775C39.5614 10.8775 41.7983 13.1612 41.7983 15.9783C41.7983 18.7951 39.5614 21.0788 36.8222 21.0788C34.0829 21.0788 31.846 18.7951 31.846 15.9783ZM9.68183 17.1923C9.68183 13.2881 12.7878 10.1189 16.5959 10.1189C20.4039 10.1189 23.5103 13.2881 23.5103 17.1923C23.5103 21.0965 20.4039 24.2656 16.5959 24.2656C12.7878 24.2656 9.68183 21.0965 9.68183 17.1923Z" fill="#8A5B4A" stroke="#8A5B4A" stroke-width="0.4"/>
</g>
<defs>
<clipPath id="clip0_76_136">
<rect width="50" height="50" fill="white"/>
</clipPath>
</defs>
</svg>
