<svg width="50" height="50" viewBox="0 0 50 50" fill="none" xmlns="http://www.w3.org/2000/svg">
<path fill-rule="evenodd" clip-rule="evenodd" d="M25.0039 24.3402C25.0039 21.5363 22.7454 19.2557 19.9682 19.2557C17.191 19.2557 14.9324 21.5363 14.9324 24.3402C14.9324 27.106 17.1356 29.3556 19.8624 29.4141C19.8977 29.4141 19.9329 29.4092 19.9682 29.4092C20.0034 29.4092 20.0387 29.4141 20.0739 29.4141C22.8008 29.3556 25.0039 27.106 25.0039 24.3402ZM39.9122 47.1222C40.1237 48.6424 38.9177 50 37.3969 50C36.1505 50 35.098 49.077 34.9243 47.8339C33.887 40.4414 27.6301 34.5517 20.0739 34.4983C20.0387 34.4983 20.0059 34.5087 19.9682 34.5087C19.9304 34.5087 19.8977 34.4983 19.8624 34.4983C12.3063 34.5517 6.04941 40.439 5.01204 47.8314C4.83831 49.0771 3.78584 50 2.53949 50C1.0187 50 -0.187355 48.6399 0.0241461 47.1197C1.03885 39.8239 5.84546 33.601 12.3491 30.9216C10.8409 29.1447 9.89671 26.8645 9.89671 24.3402C9.89671 17.9519 15.7306 12.9412 22.3123 14.4385C25.7542 15.2214 28.5994 17.9186 29.599 21.3327C30.6817 25.0365 29.6746 28.4608 27.5872 30.9216C34.0909 33.6061 38.8975 39.8238 39.9122 47.1222ZM46.2346 12.9132C39.9172 18.7677 38.9957 18.0763 33.3129 12.7429C24.5205 4.49123 34.0556 -4.45694 39.4766 2.48809C39.6705 2.73976 40.0608 2.73202 40.2572 2.4829C45.6051 -4.41383 55.4072 4.42257 46.2346 12.9132Z" fill="#8A5B4A"/>
</svg>
