<svg width="50" height="50" viewBox="0 0 50 50" fill="none" xmlns="http://www.w3.org/2000/svg">
<path fill-rule="evenodd" clip-rule="evenodd" d="M24.9944 17.7719C23.3281 15.8782 20.5498 15.3688 18.4623 17.1029C16.3747 18.837 16.0808 21.7362 17.7202 23.7872C18.695 25.0068 21.0827 27.1937 22.8581 28.7664C23.5911 29.4156 23.9575 29.7402 24.3988 29.8718C24.7761 29.9843 25.2125 29.9843 25.59 29.8718C26.0311 29.7402 26.3975 29.4156 27.1304 28.7664C28.9058 27.1937 31.2936 25.0068 32.2683 23.7872C33.9077 21.7362 33.6498 18.8187 31.5263 17.1029C29.4029 15.387 26.6604 15.8782 24.9944 17.7719Z" stroke="#8A5B4A" stroke-width="4" stroke-linejoin="round"/>
<path d="M6.25 14.9999C6.25 12.6664 6.25 11.4996 6.70415 10.6083C7.1036 9.82427 7.74102 9.18686 8.52504 8.7874C9.41633 8.33325 10.5831 8.33325 12.9167 8.33325H37.0833C39.4169 8.33325 40.5838 8.33325 41.475 8.7874C42.259 9.18686 42.8965 9.82427 43.2958 10.6083C43.75 11.4996 43.75 12.6664 43.75 14.9999V41.6666L36.8244 38.2037C36.2994 37.9412 36.0369 37.8099 35.7617 37.7174C35.5175 37.6353 35.266 37.576 35.0108 37.5401C34.7233 37.4999 34.4298 37.4999 33.8429 37.4999H12.9167C10.5831 37.4999 9.41633 37.4999 8.52504 37.0457C7.74102 36.6464 7.1036 36.0089 6.70415 35.2249C6.25 34.3337 6.25 33.1668 6.25 30.8333V14.9999Z" stroke="#8A5B4A" stroke-width="4" stroke-linejoin="round"/>
</svg>
